<?xml version="1.0" encoding="UTF-8" standalone="no"?>
<!-- Created with sK1/UniConvertor (http://sk1project.org/) -->

<svg
   xmlns:dc="http://purl.org/dc/elements/1.1/"
   xmlns:cc="http://creativecommons.org/ns#"
   xmlns:rdf="http://www.w3.org/1999/02/22-rdf-syntax-ns#"
   xmlns:svg="http://www.w3.org/2000/svg"
   xmlns="http://www.w3.org/2000/svg"
   xmlns:sodipodi="http://sodipodi.sourceforge.net/DTD/sodipodi-0.dtd"
   xmlns:inkscape="http://www.inkscape.org/namespaces/inkscape"
   width="595.276pt"
   height="841.89pt"
   viewBox="0 0 595.276 841.89"
   fill-rule="evenodd"
   version="1.1"
   id="svg74"
   sodipodi:docname="cama_6mm.svg"
   inkscape:version="0.92.4 (5da689c313, 2019-01-14)">
  <metadata
     id="metadata80">
    <rdf:RDF>
      <cc:Work
         rdf:about="">
        <dc:format>image/svg+xml</dc:format>
        <dc:type
           rdf:resource="http://purl.org/dc/dcmitype/StillImage" />
        <dc:title></dc:title>
      </cc:Work>
    </rdf:RDF>
  </metadata>
  <defs
     id="defs78" />
  <sodipodi:namedview
     pagecolor="#ffffff"
     bordercolor="#666666"
     borderopacity="1"
     objecttolerance="10"
     gridtolerance="10"
     guidetolerance="10"
     inkscape:pageopacity="0"
     inkscape:pageshadow="2"
     inkscape:window-width="1440"
     inkscape:window-height="837"
     id="namedview76"
     showgrid="false"
     inkscape:zoom="0.10512062"
     inkscape:cx="-1009.7726"
     inkscape:cy="-896.9817"
     inkscape:window-x="-4"
     inkscape:window-y="-4"
     inkscape:window-maximized="1"
     inkscape:current-layer="g72" />
  <g
     id="g72"
     transform="translate(-149.82788,-32.105974)">
    <path
       style="fill:none;stroke:#333333;stroke-width:1.98924601;stroke-linecap:round;stroke-linejoin:round"
       d="m 787.30552,-117.23883 c 0,0 -181.65565,0 -272.4847,0 -90.82895,0 -90.82895,0 -90.82895,0 0,0 0,0 0,0 0,0 0,0 0,-2.50555 0,-2.50549 0,-7.51672 0,-10.02227 0,-2.50568 0,-2.50568 0,-2.50568 0,0 0,0 0,0 0,0 0,0 -20.87974,0 -20.87974,0 -62.63924,0 -83.51899,0 -20.87976,0 -20.87976,0 -20.87976,0 0,0 0,0 0,0 0,0 0,0 0,2.50568 0,2.50555 0,7.51678 0,10.02227 0,2.50555 0,2.50555 0,2.50555 0,0 0,0 0,0 0,0 0,0 -60.55266,0 -60.55267,0 -181.655598,0 -242.2082781,0 -60.5517199,0 -60.5517199,0 -60.5517199,0 0,0 0,0 0,0 0,0 0,0 0,-2.50555 0,-2.50549 0,-7.51672 0,-10.02227 0,-2.50568 0,-2.50568 0,-2.50568 0,0 0,0 0,0 0,0 0,0 -20.88,0 -20.879982,0 -62.639942,0 -83.519922,0 -20.87997,0 -20.87997,0 -20.87997,0 0,0 0,0 0,0 0,0 0,0 0,2.50568 0,2.50555 0,7.51678 0,10.02227 0,2.50555 0,2.50555 0,2.50555 0,0 0,0 0,0 0,0 0,0 -12.11054,0 -12.11029,0 -36.33113,0 -48.44142,0 -12.11051,0 -12.11051,0 -12.11051,0 0,0 0,0 0,0 0,0 0,0 0,20.462277 0,20.462622 0,61.387259 0,81.84969 0,20.462428 0,20.462428 0,20.462428 0,0 0,0 0,0 0,0 0,0 -2.5056,0 -2.50559,0 -7.5168,0 -10.02239,0 -2.50561,0 -2.50561,0 -2.50561,0 0,0 0,0 0,0 0,0 0,0 0,20.879979 0,20.879976 0,62.639934 0,83.519206 0,20.87976 0,20.87976 0,20.87976 0,0 0,0 0,0 0,0 0,0 2.50561,0 2.50559,0 7.5168,0 10.02239,0 2.5056,0 2.5056,0 2.5056,0 0,0 0,0 0,0 0,0 0,0 0,41.76182 0,41.75948 0,125.27846 0,167.0403 0,41.75951 0,41.75951 0,41.75951 0,0 0,0 0,0 0,0 0,0 -2.5056,0 -2.50559,0 -7.5168,0 -10.02239,0 -2.50561,0 -2.50561,0 -2.50561,0 0,0 0,0 0,0 0,0 0,0 0,20.87974 0,20.87971 0,62.63921 0,83.51894 0,20.87977 0,20.87977 0,20.87977 0,0 0,0 0,0 0,0 0,0 2.50561,0 2.50559,0 7.5168,0 10.02239,0 2.5056,0 2.5056,0 2.5056,0 0,0 0,0 0,0 0,0 0,0 0,20.46337 0,20.46336 0,61.38771 0,81.84877 0,20.4634 0,20.4634 0,20.4634 0,0 0,0 0,0 0,0 0,0 12.11051,0 12.11029,0 36.33113,0 48.44142,0 12.11054,0 12.11054,0 12.11054,0 0,0 0,0 0,0 0,0 0,0 0,2.50525 0,2.50529 0,7.51822 0,10.02349 0,2.50531 0,2.50531 0,2.50531 0,0 0,0 0,0 0,0 0,0 20.87997,0 20.87998,0 62.63994,0 83.519922,0 20.88,0 20.88,0 20.88,0 0,0 0,0 0,0 0,0 0,0 0,-2.50531 0,-2.50527 0,-7.5182 0,-10.02349 0,-2.50525 0,-2.50525 0,-2.50525 0,0 0,0 0,0 0,0 0,0 60.5517199,0 60.5526801,0 181.6556081,0 242.2082781,0 60.55266,0 60.55266,0 60.55266,0 0,0 0,0 0,0 0,0 0,0 0,2.50525 0,2.50529 0,7.51822 0,10.02349 0,2.50531 0,2.50531 0,2.50531 0,0 0,0 0,0 0,0 0,0 20.87976,0 20.87975,0 62.63925,0 83.51899,0 20.87974,0 20.87974,0 20.87974,0 0,0 0,0 0,0 0,0 0,0 0,-2.50531 0,-2.50527 0,-7.5182 0,-10.02349 0,-2.50525 0,-2.50525 0,-2.50525 0,0 0,0 0,0 0,0 0,0 60.55263,0 60.55273,0 181.65568,0 242.20842,0 60.5526,0 60.5526,0 60.5526,0 0,0 0,0 0,0 0,0 0,0 0,2.50525 0,2.50529 0,7.51822 0,10.02349 0,2.50531 0,2.50531 0,2.50531 0,0 0,0 0,0 0,0 0,0 20.8798,0 20.8796,0 62.6393,0 83.519,0 20.8797,0 20.8797,0 20.8797,0 0,0 0,0 0,0 0,0 0,0 0,-2.50531 0,-2.50527 0,-7.5182 0,-10.02349 0,-2.50525 0,-2.50525 0,-2.50525 0,0 0,0 0,0 0,0 0,0 12.1123,0 12.1101,0 36.3301,0 48.4403,0 12.1102,0 12.1102,0 12.1102,0 0,0 0,0 0,0 0,0 0,0 0,-20.4634 0,-20.46106 0,-61.38541 0,-81.84877 0,-20.46337 0,-20.46337 0,-20.46337 0,0 0,0 0,0 0,0 0,0 2.505,0 2.5078,0 7.5184,0 10.0236,0 2.50538,0 2.50538,0 2.50538,0 0,0 0,0 0,0 0,0 0,0 0,-20.87977 0,-20.87973 0,-62.63923 0,-83.51894 0,-20.87974 0,-20.87974 0,-20.87974 0,0 0,0 0,0 0,0 0,0 -2.50538,0 -2.5052,0 -7.5158,0 -10.0236,0 -2.505,0 -2.505,0 -2.505,0 0,0 0,0 0,0 0,0 0,0 0,-41.75951 0,-41.76184 0,-125.28082 0,-167.0403 0,-41.76182 0,-41.76182 0,-41.76182 0,0 0,0 0,0 0,0 0,0 2.505,0 2.5078,0 7.5184,0 10.0236,0 2.50538,0 2.50538,0 2.50538,0 0,0 0,0 0,0 0,0 0,0 0,-20.87976 0,-20.879272 0,-62.63923 0,-83.519206 0,-20.879979 0,-20.879979 0,-20.879979 0,0 0,0 0,0 0,0 0,0 -2.50538,0 -2.5052,0 -7.5158,0 -10.0236,0 -2.505,0 -2.505,0 -2.505,0 0,0 0,0 0,0 0,0 0,0 0,-20.462428 0,-20.462431 0,-61.387068 0,-81.84969 0,-20.462277 0,-20.462277 0,-20.462277 0,0 0,0 0,0 0,0 0,0 -12.1102,0 -12.1102,0 -36.3302,0 -48.4403,0 -12.1123,0 -12.1123,0 -12.1123,0 0,0 0,0 0,0 0,0 0,0 0,-2.50555 0,-2.50549 0,-7.51672 0,-10.02227 0,-2.50568 0,-2.50568 0,-2.50568 0,0 0,0 0,0 0,0 0,0 -20.8797,0 -20.8797,0 -62.6394,0 -83.519,0 -20.8798,0 -20.8798,0 -20.8798,0 0,0 0,0 0,0 0,0 0,0 0,3.7584 0,3.75834 0,11.2751 0,11.2751"
       id="path2"
       inkscape:connector-curvature="0" />
    <path
       style="fill:none;stroke:#333333;stroke-width:1.98924601;stroke-linecap:round;stroke-linejoin:round"
       d="m 985.24682,646.96947 c 0,0 -623.89417,0 -935.841248,0 -311.947212,0 -311.947212,0 -311.947212,0 0,0 0,0 0,0 0,0 0,0 0,6.26438 0,6.26442 0,18.79082 0,25.05523 0,6.2644 0,6.2644 0,6.2644 0,0 0,0 0,0 0,0 0,0 -2.5056,0 -2.50559,0 -7.5168,0 -10.02239,0 -2.50561,0 -2.50561,0 -2.50561,0 0,0 0,0 0,0 0,0 0,0 0,12.52875 0,12.5264 0,37.58406 0,50.11047 0,12.52878 0,12.52878 0,12.52878 0,0 0,0 0,0 0,0 0,0 2.50561,0 2.50559,0 7.5168,0 10.02239,0 2.5056,0 2.5056,0 2.5056,0 0,0 0,0 0,0 0,0 0,0 0,22.96861 0,22.96639 0,68.90365 0,91.87232 0,22.96637 0,22.96637 0,22.96637 0,0 0,0 0,0 0,0 0,0 -2.5056,0 -2.50559,0 -7.5168,0 -10.02239,0 -2.50561,0 -2.50561,0 -2.50561,0 0,0 0,0 0,0 0,0 0,0 0,12.52873 0,12.5288 0,37.58399 0,50.11281 0,12.52645 0,12.52645 0,12.52645 0,0 0,0 0,0 0,0 0,0 2.50561,0 2.50559,0 7.5168,0 10.02239,0 2.5056,0 2.5056,0 2.5056,0 0,0 0,0 0,0 0,0 0,0 0,6.26439 0,6.26439 0,18.79311 0,25.05514 0,6.2644 0,6.2644 0,6.2644 0,0 0,0 0,0 0,0 0,0 207.964922,0 207.964658,0 623.894048,0 831.858638,0 207.9649,0 207.9649,0 207.9649,0 0,0 0,0 0,0 0,0 0,0 0,-6.2644 0,-6.26203 0,-18.79075 0,-25.05514 0,-6.26439 0,-6.26439 0,-6.26439 0,0 0,0 0,0 0,0 0,0 2.505,0 2.5078,0 7.5184,0 10.0236,0 2.50538,0 2.50538,0 2.50538,0 0,0 0,0 0,0 0,0 0,0 0,-12.52645 0,-12.52882 0,-37.58401 0,-50.11281 0,-12.52873 0,-12.52873 0,-12.52873 0,0 0,0 0,0 0,0 0,0 -2.50538,0 -2.5052,0 -7.5158,0 -10.0236,0 -2.505,0 -2.505,0 -2.505,0 0,0 0,0 0,0 0,0 0,0 0,-22.96637 0,-22.96867 0,-68.90593 0,-91.87232 0,-22.96861 0,-22.96861 0,-22.96861 0,0 0,0 0,0 0,0 0,0 2.505,0 2.5078,0 7.5184,0 10.0236,0 2.50538,0 2.50538,0 2.50538,0 0,0 0,0 0,0 0,0 0,0 0,-12.52878 0,-12.52641 0,-37.58407 0,-50.11047 0,-12.52875 0,-12.52875 0,-12.52875 0,0 0,0 0,0 0,0 0,0 -2.50538,0 -2.5052,0 -7.5158,0 -10.0236,0 -2.505,0 -2.505,0 -2.505,0 0,0 0,0 0,0 0,0 0,0 0,-9.39658 0,-9.39659 0,-28.18743 0,-28.18743"
       id="path4"
       inkscape:connector-curvature="0" />
    <path
       style="fill:none;stroke:#333333;stroke-width:1.98924601;stroke-linecap:round;stroke-linejoin:round"
       d="m 423.99187,684.55348 c 0,0 0,7.51586 0,11.27497 0,3.75913 0,3.75913 0,3.75913 0,0 0,0 0,0 0,0 0,0 -20.87974,0 -20.87974,0 -62.63924,0 -83.51899,0 -20.87976,0 -20.87976,0 -20.87976,0 0,0 0,0 0,0 0,0 0,0 0,-2.50535 0,-2.50763 0,-7.51819 0,-10.02348 0,-2.50527 0,-2.50527 0,-2.50527 0,0 0,0 0,0 0,0 0,0 31.31961,0 31.31966,0 93.95888,0 93.95888,0"
       id="path6"
       inkscape:connector-curvature="0" />
    <path
       style="fill:none;stroke:#333333;stroke-width:1.98924601;stroke-linecap:round;stroke-linejoin:round"
       d="m 76.341572,759.72148 c 0,0 57.158458,0 85.738888,0 28.57804,0 28.57804,0 28.57804,0 0,0 0,0 0,0 0,0 0,0 0,31.31964 0,31.3196 0,93.96116 0,125.28078 0,31.3196 0,31.3196 0,31.3196 0,0 0,0 0,0 0,0 0,0 -19.05284,0 -19.05284,0 -57.15843,0 -76.211318,0 -19.05277,0 -19.05277,0 -19.05277,0 0,0 0,0 0,0 0,0 0,0 0,-46.98059 0,-46.98059 0,-140.93943 0,-140.93943"
       id="path8"
       inkscape:connector-curvature="0" />
    <path
       style="fill:none;stroke:#333333;stroke-width:1.98924601;stroke-linecap:round;stroke-linejoin:round"
       d="m 38.757552,759.72148 c 0,0 0,93.95884 0,140.93943 0,46.98059 0,46.98059 0,46.98059 0,0 0,0 0,0 0,0 0,0 -19.05289,0 -19.05276014,0 -57.16074,0 -76.21288,0 -19.05309,0 -19.05309,0 -19.05309,0 0,0 0,0 0,0 0,0 0,0 0,-31.3196 0,-31.31962 0,-93.96118 0,-125.28078 0,-31.31964 0,-31.31964 0,-31.31964 0,0 0,0 0,0 0,0 0,0 28.57947,0 28.57857,0 85.73939,0 85.73939,0"
       id="path10"
       inkscape:connector-curvature="0" />
    <path
       style="fill:none;stroke:#333333;stroke-width:1.98924601;stroke-linecap:round;stroke-linejoin:round"
       d="m -113.1453,759.72148 c 0,0 0,93.95884 0,140.93943 0,46.98059 0,46.98059 0,46.98059 0,0 0,0 0,0 0,0 0,0 -19.0528,0 -19.05309,0 -57.15919,0 -76.21202,0 -19.05306,0 -19.05306,0 -19.05306,0 0,0 0,0 0,0 0,0 0,0 0,-31.3196 0,-31.31962 0,-93.96118 0,-125.28078 0,-31.31964 0,-31.31964 0,-31.31964 0,0 0,0 0,0 0,0 0,0 28.57947,0 28.57947,0 85.73841,0 85.73841,0"
       id="path12"
       inkscape:connector-curvature="0" />
    <path
       style="fill:none;stroke:#333333;stroke-width:1.98924601;stroke-linecap:round;stroke-linejoin:round"
       d="m 380.14581,759.72148 c 0,0 57.15845,0 85.73654,0 28.58041,0 28.58041,0 28.58041,0 0,0 0,0 0,0 0,0 0,0 0,31.31964 0,31.3196 0,93.96116 0,125.28078 0,31.3196 0,31.3196 0,31.3196 0,0 0,0 0,0 0,0 0,0 -19.05282,0 -19.05284,0 -57.1585,0 -76.21131,0 -19.05282,0 -19.05282,0 -19.05282,0 0,0 0,0 0,0 0,0 0,0 0,-46.98059 0,-46.98059 0,-140.93943 0,-140.93943"
       id="path14"
       inkscape:connector-curvature="0" />
    <path
       style="fill:none;stroke:#333333;stroke-width:1.98924601;stroke-linecap:round;stroke-linejoin:round"
       d="m 342.56175,759.72148 c 0,0 0,93.95884 0,140.93943 0,46.98059 0,46.98059 0,46.98059 0,0 0,0 0,0 0,0 0,0 -19.05281,0 -19.05513,0 -57.16078,0 -76.21363,0 -19.05279,0 -19.05279,0 -19.05279,0 0,0 0,0 0,0 0,0 0,0 0,-31.3196 0,-31.31962 0,-93.96118 0,-125.28078 0,-31.31964 0,-31.31964 0,-31.31964 0,0 0,0 0,0 0,0 0,0 28.58043,0 28.57804,0 85.7388,0 85.7388,0"
       id="path16"
       inkscape:connector-curvature="0" />
    <path
       style="fill:none;stroke:#333333;stroke-width:1.98924601;stroke-linecap:round;stroke-linejoin:round"
       d="m -189.87917,684.55348 c 0,0 62.63993,0 93.960032,0 31.31986,0 31.31986,0 31.31986,0 0,0 0,0 0,0 0,0 0,0 0,2.50527 0,2.50529 0,7.51585 0,10.02348 0,2.50535 0,2.50535 0,2.50535 0,0 0,0 0,0 0,0 0,0 -20.88,0 -20.879982,0 -62.639942,0 -83.519922,0 -20.87997,0 -20.87997,0 -20.87997,0 0,0 0,0 0,0 0,0 0,0 0,-3.75913 0,-3.75911 0,-11.27497 0,-11.27497"
       id="path18"
       inkscape:connector-curvature="0" />
    <path
       style="fill:none;stroke:#333333;stroke-width:1.98924601;stroke-linecap:round;stroke-linejoin:round"
       d="m 683.94771,759.72148 c 0,0 57.16081,0 85.73891,0 28.5804,0 28.5804,0 28.5804,0 0,0 0,0 0,0 0,0 0,0 0,31.31964 0,31.3196 0,93.96116 0,125.28078 0,31.3196 0,31.3196 0,31.3196 0,0 0,0 0,0 0,0 0,0 -19.0528,0 -19.0528,0 -57.1586,0 -76.2113,0 -19.05521,0 -19.05521,0 -19.05521,0 0,0 0,0 0,0 0,0 0,0 0,-46.98059 0,-46.98059 0,-140.93943 0,-140.93943"
       id="path20"
       inkscape:connector-curvature="0" />
    <path
       style="fill:none;stroke:#333333;stroke-width:1.98924601;stroke-linecap:round;stroke-linejoin:round"
       d="m 835.85102,947.6415 c 0,0 0,-93.96118 0,-140.93942 0,-46.9806 0,-46.9806 0,-46.9806 0,0 0,0 0,0 0,0 0,0 19.0529,0 19.0528,0 57.1583,0 76.2111,0 19.053,0 19.053,0 19.053,0 0,0 0,0 0,0 0,0 0,0 0,31.31964 0,31.3196 0,93.96116 0,125.28078 0,31.3196 0,31.3196 0,31.3196 0,0 0,0 0,0 0,0 0,0 -28.5781,0 -28.5805,0 -85.7389,0 -85.7389,0"
       id="path22"
       inkscape:connector-curvature="0" />
    <path
       style="fill:none;stroke:#333333;stroke-width:1.98924601;stroke-linecap:round;stroke-linejoin:round"
       d="m 532.04681,759.72148 c 0,0 57.15842,0 85.73882,0 28.5781,0 28.5781,0 28.5781,0 0,0 0,0 0,0 0,0 0,0 0,31.31964 0,31.3196 0,93.96116 0,125.28078 0,31.3196 0,31.3196 0,31.3196 0,0 0,0 0,0 0,0 0,0 -19.05286,0 -19.05281,0 -57.15845,0 -76.21127,0 -19.05279,0 -19.05279,0 -19.05279,0 0,0 0,0 0,0 0,0 0,0 0,-46.98059 0,-46.98059 0,-140.93943 0,-140.93943"
       id="path24"
       inkscape:connector-curvature="0" />
    <path
       style="fill:none;stroke:#333333;stroke-width:1.98924601;stroke-linecap:round;stroke-linejoin:round"
       d="m 787.30552,699.58758 c 0,0 0,-7.51824 0,-11.27502 0,-3.75908 0,-3.75908 0,-3.75908 0,0 0,0 0,0 0,0 0,0 20.8798,0 20.8796,0 62.6393,0 83.519,0 20.8797,0 20.8797,0 20.8797,0 0,0 0,0 0,0 0,0 0,0 0,2.50527 0,2.50529 0,7.51585 0,10.02348 0,2.50535 0,2.50535 0,2.50535 0,0 0,0 0,0 0,0 0,0 -31.3197,0 -31.3197,0 -93.9588,0 -93.9588,0"
       id="path26"
       inkscape:connector-curvature="0" />
    <path
       style="fill:none;stroke:#333333;stroke-width:1.98924601;stroke-linecap:round;stroke-linejoin:round"
       d="m -262.54164,1376.0996 c 0,0 264.1853719,0 396.27558,0 132.09254,0 132.09254,0 132.09254,0 0,0 0,0 1.15322,0 1.15331,0 3.45975,0 5.54863,-0.9356 2.08659,-0.9357 3.95796,-2.8047 4.89131,-4.8913 0.93568,-2.0889 0.93568,-4.3954 0.93568,-5.5486 0,-1.1532 0,-1.1532 0,-1.1532 0,0 0,0 0,-6.2645 0,-6.2644 0,-18.7907 0,-25.0551 0,-6.2644 0,-6.2644 0,-6.2644 0,0 0,0 0,-0.5545 0,-0.552 0,-1.6607 -0.21991,-2.7461 -0.21987,-1.0854 -0.65967,-2.1474 -1.27255,-3.069 -0.6105,-0.9218 -1.39418,-1.7053 -1.78478,-2.0984 -0.39303,-0.3906 -0.39303,-0.3906 -0.78361,-0.7814 -0.393,-0.3927 -1.17436,-1.1765 -2.09836,-1.7871 -0.92162,-0.6104 -1.98359,-1.0525 -3.06899,-1.2725 -1.08534,-0.2199 -2.19183,-0.2199 -2.74625,-0.2199 -0.55439,0 -0.55439,0 -0.55439,0 0,0 0,0 -6.26438,0 -6.26433,0 -18.79084,0 -25.0552,0 -6.26438,0 -6.26438,0 -6.26438,0 0,0 0,0 0,0 0,0 0,0 0,-31.3196 0,-31.3196 0,-93.9587 0,-125.2784 0,-31.322 0,-31.322 0,-31.322 0,0 0,0 0,0 0,0 0,0 126.16732,0 126.16744,0 378.50208,0 504.66948,0 126.1675,0 126.1675,0 126.1675,0 0,0 0,0 0,0 0,0 0,0 0,-4.1754 0,-4.1754 0,-12.5289 0,-16.7043 0,-4.1755 0,-4.1755 0,-4.1755 0,0 0,0 0,0 0,0 0,0 2.505,0 2.5078,0 7.5184,0 10.0236,0 2.50538,0 2.50538,0 2.50538,0 0,0 0,0 0,0 0,0 0,0 0,-10.4398 0,-10.4399 0,-31.3197 0,-41.7595 0,-10.4398 0,-10.4398 0,-10.4398 0,0 0,0 0,0 0,0 0,0 -2.50538,0 -2.5052,0 -7.5158,0 -10.0236,0 -2.505,0 -2.505,0 -2.505,0 0,0 0,0 0,0 0,0 0,0 0,-4.178 0,-4.1754 0,-12.5264 0,-16.7017 0,-4.178 0,-4.178 0,-4.178 0,0 0,0 0,0 0,0 0,0 -207.9649,0 -207.96459,0 -623.89398,0 -831.858638,0 -207.964922,0 -207.964922,0 -207.964922,0 0,0 0,0 0,0 0,0 0,0 0,6.2644 0,6.2644 0,18.7933 0,25.0577 0,6.262 0,6.262 0,6.262 0,0 0,0 0,0 0,0 0,0 -2.5056,0 -2.50559,0 -7.5168,0 -10.02239,0 -2.50561,0 -2.50561,0 -2.50561,0 0,0 0,0 0,0 0,0 0,0 0,12.5286 0,12.5289 0,37.5841 0,50.1129 0,12.5264 0,12.5264 0,12.5264 0,0 0,0 0,0 0,0 0,0 2.50561,0 2.50559,0 7.5168,0 10.02239,0 2.5056,0 2.5056,0 2.5056,0 0,0 0,0 0,0 0,0 0,0 0,22.9687 0,22.9686 0,68.9037 0,91.8722 0,22.9688 0,22.9688 0,22.9688 0,0 0,0 0,0 0,0 0,0 -2.5056,0 -2.50559,0 -7.5168,0 -10.02239,0 -2.50561,0 -2.50561,0 -2.50561,0 0,0 0,0 0,0 0,0 0,0 0,12.5265 0,12.5287 0,37.5838 0,50.1127 0,12.5288 0,12.5288 0,12.5288 0,0 0,0 0,0 0,0 0,0 2.50561,0 2.50559,0 7.5168,0 10.02239,0 2.5056,0 2.5056,0 2.5056,0 0,0 0,0 0,0 0,0 0,0 0,9.3942 0,9.3965 0,28.1897 0,28.1897"
       id="path28"
       inkscape:connector-curvature="0" />
    <path
       style="fill:none;stroke:#333333;stroke-width:1.98924601;stroke-linecap:round;stroke-linejoin:round"
       d="m 190.6585,1125.538 c 0,0 0,93.9612 0,140.9418 0,46.9782 0,46.9782 0,46.9782 0,0 0,0 0,0 0,0 0,0 -19.05284,0 -19.05284,0 -57.15843,0 -76.211318,0 -19.05277,0 -19.05277,0 -19.05277,0 0,0 0,0 0,0 0,0 0,0 0,-31.3196 0,-31.3196 0,-93.9587 0,-125.2784 0,-31.322 0,-31.322 0,-31.322 0,0 0,0 0,0 0,0 0,0 28.578038,0 28.58042,0 85.73889,0 85.73889,0"
       id="path30"
       inkscape:connector-curvature="0" />
    <path
       style="fill:none;stroke:#333333;stroke-width:1.98924601;stroke-linecap:round;stroke-linejoin:round"
       d="m 38.757552,1125.538 c 0,0 0,93.9612 0,140.9418 0,46.9782 0,46.9782 0,46.9782 0,0 0,0 0,0 0,0 0,0 -19.05289,0 -19.05276014,0 -57.16074,0 -76.21288,0 -19.05309,0 -19.05309,0 -19.05309,0 0,0 0,0 0,0 0,0 0,0 0,-31.3196 0,-31.3196 0,-93.9587 0,-125.2784 0,-31.322 0,-31.322 0,-31.322 0,0 0,0 0,0 0,0 0,0 28.57947,0 28.57857,0 85.73939,0 85.73939,0"
       id="path32"
       inkscape:connector-curvature="0" />
    <path
       style="fill:none;stroke:#333333;stroke-width:1.98924601;stroke-linecap:round;stroke-linejoin:round"
       d="m -113.1453,1125.538 c 0,0 0,93.9612 0,140.9418 0,46.9782 0,46.9782 0,46.9782 0,0 0,0 0,0 0,0 0,0 -19.0528,0 -19.05309,0 -57.15919,0 -76.21202,0 -19.05306,0 -19.05306,0 -19.05306,0 0,0 0,0 0,0 0,0 0,0 0,-31.3196 0,-31.3196 0,-93.9587 0,-125.2784 0,-31.322 0,-31.322 0,-31.322 0,0 0,0 0,0 0,0 0,0 28.57947,0 28.57947,0 85.73841,0 85.73841,0"
       id="path34"
       inkscape:connector-curvature="0" />
    <path
       style="fill:none;stroke:#333333;stroke-width:1.98924601;stroke-linecap:round;stroke-linejoin:round"
       d="m 787.30552,1065.4042 c 0,0 0,-7.516 0,-11.275 0,-3.7591 0,-3.7591 0,-3.7591 0,0 0,0 0,0 0,0 0,0 20.8798,0 20.8796,0 62.6393,0 83.519,0 20.8797,0 20.8797,0 20.8797,0 0,0 0,0 0,0 0,0 0,0 0,2.5052 0,2.5075 0,7.5183 0,10.0234 0,2.5055 0,2.5055 0,2.5055 0,0 0,0 0,0 0,0 0,0 -31.3197,0 -31.3197,0 -93.9588,0 -93.9588,0"
       id="path36"
       inkscape:connector-curvature="0" />
    <path
       style="fill:none;stroke:#333333;stroke-width:1.98924601;stroke-linecap:round;stroke-linejoin:round"
       d="m 298.71338,1065.4042 c 0,0 0,-7.516 0,-11.275 0,-3.7591 0,-3.7591 0,-3.7591 0,0 0,0 0,0 0,0 0,0 20.87976,0 20.87975,0 62.63925,0 83.51899,0 20.87974,0 20.87974,0 20.87974,0 0,0 0,0 0,0 0,0 0,0 0,2.5052 0,2.5075 0,7.5183 0,10.0234 0,2.5055 0,2.5055 0,2.5055 0,0 0,0 0,0 0,0 0,0 -31.31958,0 -31.31964,0 -93.95891,0 -93.95891,0"
       id="path38"
       inkscape:connector-curvature="0" />
    <path
       style="fill:none;stroke:#333333;stroke-width:1.98924601;stroke-linecap:round;stroke-linejoin:round"
       d="m -64.599278,1065.4042 c 0,0 -62.639962,0 -93.960042,0 -31.31985,0 -31.31985,0 -31.31985,0 0,0 0,0 0,0 0,0 0,0 0,-2.5055 0,-2.5051 0,-7.5159 0,-10.0234 0,-2.5052 0,-2.5052 0,-2.5052 0,0 0,0 0,0 0,0 0,0 20.87997,0 20.87998,0 62.63994,0 83.519922,0 20.88,0 20.88,0 20.88,0 0,0 0,0 0,0 0,0 0,0 0,3.7591 0,3.759 0,11.275 0,11.275"
       id="path40"
       inkscape:connector-curvature="0" />
    <path
       style="fill:none;stroke:#333333;stroke-width:1.98924601;stroke-linecap:round;stroke-linejoin:round"
       d="m 1379.1195,232.65177 c 0,0 0,-62.63921 0,-93.95884 0,-31.31961 0,-31.31961 0,-31.31961 0,0 0,0 0,0 0,0 0,0 2.5054,0 2.5054,0 7.516,0 10.0213,0 2.5075,0 2.5075,0 2.5075,0 0,0 0,0 0,0 0,0 0,0 0,20.87975 0,20.87975 0,62.63923 0,83.51897 0,20.87973 0,20.87973 0,20.87973 0,0 0,0 0,0 0,0 0,0 -3.7591,0 -3.7589,0 -11.2751,0 -11.2751,0"
       id="path42"
       inkscape:connector-curvature="0" />
    <path
       style="fill:none;stroke:#333333;stroke-width:1.98924601;stroke-linecap:round;stroke-linejoin:round"
       d="m 1431.7377,112.76752 c 0,-10.56851 2.2222,-15.607168 4.6364,-19.313171 2.414,-3.706703 5.0153,-6.080525 6.3159,-7.267439 1.3029,-1.186915 1.3029,-1.186915 7.4034,-6.752586 6.1007,-5.565664 18.3043,-16.697243 26.6554,-30.902063 8.3487,-14.204825 12.8444,-31.482894 12.4772,-47.95581353 -0.3673,-16.47268347 -5.6,-32.14021447 -8.2151,-39.97396347 -2.6153,-7.833531 -2.6153,-7.833531 -5.2306,-15.667076 -2.6151,-7.833761 -7.8458,-23.501045 -17.4481,-36.890883 -9.6025,-13.389645 -23.5769,-24.501835 -38.7841,-30.841685 -15.2096,-6.33986 -31.6517,-7.90757 -39.8739,-8.69137 -8.2201,-0.7838 -8.2201,-0.7838 -16.4423,-1.56761 -8.22,-0.78387 -24.6647,-2.35152 -40.7958,1.00053 -16.1335,3.35184 -31.9558,11.6235 -43.9139,22.9577 -11.9603,11.334168 -20.0563,25.731281 -24.1056,32.929713 -4.0491,7.198688 -4.0491,7.198688 -4.2714,7.59307 -0.2199,0.394381 -0.6643,1.183624 -1.3028,1.822226 -0.641,0.638881 -1.4762,1.127024 -2.3465,1.371263 -0.8677,0.24394 -1.7729,0.24394 -2.2266,0.24394 -0.4517,0 -0.4517,0 -0.9054,0 -0.4514,0 -1.3566,0 -2.2268,-0.24394 -0.8703,-0.244239 -1.7054,-0.732382 -2.3463,-1.371263 -0.6384,-0.638602 -1.0832,-1.427845 -1.3028,-1.822226 -0.2223,-0.394382 -0.2223,-0.394382 -4.2715,-7.592828 -4.0493,-7.198447 -12.1452,-21.5953 -24.1057,-32.929705 -11.9579,-11.33416 -27.7803,-19.60565 -43.9116,-22.95764 -16.1333,-3.35208 -32.5755,-1.78442 -40.798,-1.00072 -8.2222,0.78369 -8.2222,0.78369 -16.4422,1.56749 -8.2224,0.7838 -24.6646,2.35123 -39.874,8.69111 -15.2072,6.33984 -29.1817,17.45188 -38.7841,30.841701 -9.6025,13.389621 -14.8328,29.05713 -17.448,36.890889 -2.6154,7.833783 -2.6154,7.833783 -5.2306,15.667314 -2.6153,7.833749 -7.84578,23.50128 -8.21518,39.97396347 -0.3674,16.47291953 4.12868,33.75098853 12.47728,47.95581353 8.3508,14.20482 20.5545,25.336399 26.6553,30.902063 6.1005,5.565671 6.1005,5.565671 7.4036,6.752586 1.3006,1.186914 3.9017,3.560736 5.946,6.427438 2.0422,2.866692 3.5252,6.225555 4.2669,9.666522 0.7416,3.44097 0.7416,6.96383 0.7416,8.72525 0,1.7614 0,1.7614 0,1.7614 0,0 0,0 0,81.72247 0,81.72014 0,245.1651 0,326.8852 0,81.72249 0,81.72249 0,81.72249 0,0 0,0 0,1.76139 0,1.76144 0,5.28192 -0.7416,8.72292 -0.7417,3.44099 -2.2247,6.80241 -4.2669,9.66794 -2.0443,2.86785 -4.6454,5.2398 -5.946,6.42812 -1.3031,1.18596 -1.3031,1.18596 -7.4036,6.75094 -6.1008,5.56733 -18.3045,16.69725 -26.6553,30.90323 -8.3486,14.20369 -12.84468,31.48338 -12.47728,47.95602 0.3694,16.47273 5.59988,32.14071 8.21518,39.97473 2.6152,7.83397 2.6152,7.83397 5.2306,15.66562 2.6152,7.83403 7.8455,23.502 17.448,36.89163 9.6024,13.38959 23.5769,24.50083 38.7841,30.84241 15.2094,6.33924 31.6516,7.90652 39.874,8.69015 8.22,0.78365 8.22,0.78365 16.4422,1.56728 8.2225,0.78363 24.6647,2.35086 40.798,-1.00118 16.1313,-3.35209 31.9537,-11.62352 43.9116,-22.957 11.9605,-11.33344 20.0564,-25.73125 24.1057,-32.92896 4.0492,-7.19777 4.0492,-7.19777 4.2715,-7.59307 0.2196,-0.3953 0.6644,-1.18364 1.3028,-1.82225 0.6409,-0.63855 1.476,-1.12748 2.3463,-1.37079 0.8702,-0.24562 1.7754,-0.24562 2.2268,-0.24562 0.4537,0 0.4537,0 0.9054,0 0.4537,0 1.3589,0 2.2266,0.24562 0.8703,0.24331 1.7055,0.73224 2.3465,1.37079 0.6385,0.63861 1.0829,1.42695 1.3028,1.82225 0.2223,0.3953 0.2223,0.3953 4.2714,7.59307 4.0493,7.19771 12.1453,21.59552 24.1056,32.92896 11.9581,11.33348 27.7804,19.60491 43.9114,22.957 16.1336,3.35204 32.5759,1.78481 40.7983,1.00118 8.2222,-0.78363 8.2222,-0.78363 16.4423,-1.56728 8.2222,-0.78363 24.6643,-2.35091 39.8739,-8.69015 15.2072,-6.33924 29.1816,-17.45282 38.7841,-30.84241 9.6023,-13.38963 14.833,-29.0576 17.4481,-36.88931 2.6153,-7.83397 2.6153,-7.83397 5.2306,-15.66794 2.6151,-7.83402 7.8455,-23.502 8.2151,-39.97473 0.3672,-16.47264 -4.1285,-33.75002 -12.4772,-47.95602 -8.3511,-14.2036 -20.5523,-25.3359 -26.6554,-30.90087 -6.1005,-5.56734 -6.1005,-5.56734 -7.4034,-6.7533 -1.3006,-1.18832 -3.9019,-3.56027 -5.9439,-6.42812 -2.0445,-2.86553 -3.5276,-6.22695 -4.2692,-9.66794 -0.7392,-3.441 -0.7392,-6.96148 -0.7392,-8.72292 0,-1.76139 0,-1.76139 0,-1.76139 0,0 0,0 0,-122.58369 0,-122.5814 0,-367.74647 0,-367.74647"
       id="path44"
       inkscape:connector-curvature="0" />
    <path
       style="fill:none;stroke:#333333;stroke-width:1.98924601;stroke-linecap:round;stroke-linejoin:round"
       d="m 1394.1537,-15.402193 c 0,0 -37.584,0 -56.3771,-2.32e-4 -18.7909,0 -18.7909,0 -18.7909,0 0,0 0,0 0,0 0,0 0,0 0,-2.505521 0,-2.505529 0,-7.516803 0,-10.022329 0,-2.505519 0,-2.505519 0,-2.505519 0,0 0,0 0,0 0,0 0,0 12.5266,0 12.5287,0 37.5839,0 50.1126,0 12.5288,0 12.5288,0 12.5288,0 0,0 0,0 0,0 0,0 0,0 0,3.758402 0,3.758398 0,11.275199 0,11.275199"
       id="path46"
       inkscape:connector-curvature="0" />
    <path
       style="fill:none;stroke:#333333;stroke-width:1.98924601;stroke-linecap:round;stroke-linejoin:round"
       d="m 1181.1762,-30.435794 c 0,0 0,7.5168 0,11.275201 0,3.758168 0,3.758168 0,3.758168 0,0 0,0 0,0 0,0 0,0 -12.5266,0 -12.5285,0 -37.584,0 -50.1126,0 -12.5289,0 -12.5289,0 -12.5289,0 0,0 0,0 0,0 0,0 0,0 0,-2.505521 0,-2.505529 0,-7.516803 0,-10.022329 0,-2.505519 0,-2.505519 0,-2.505519 0,0 0,0 0,0 0,0 0,0 18.7931,0 18.791,0 56.375,0 56.375,0"
       id="path48"
       inkscape:connector-curvature="0" />
    <path
       style="fill:none;stroke:#333333;stroke-width:1.98924601;stroke-linecap:round;stroke-linejoin:round"
       d="m 1106.0081,731.26739 c 0,0 37.5841,0 56.3772,0 18.7909,0 18.7909,0 18.7909,0 0,0 0,0 0,0 0,0 0,0 0,2.5053 0,2.50529 0,7.51585 0,10.02113 0,2.50531 0,2.50531 0,2.50531 0,0 0,0 0,0 0,0 0,0 -12.5266,0 -12.5285,0 -37.584,0 -50.1126,0 -12.5289,0 -12.5289,0 -12.5289,0 0,0 0,0 0,0 0,0 0,0 0,-3.75679 0,-3.75906 0,-11.27495 0,-11.27495"
       id="path50"
       inkscape:connector-curvature="0" />
    <path
       style="fill:none;stroke:#333333;stroke-width:1.98924601;stroke-linecap:round;stroke-linejoin:round"
       d="m 1181.1762,238.91618 c 0,0 0,119.01641 0,178.52348 0,59.50933 0,59.50933 0,59.50933 0,0 0,0 0,2.88191 0,2.88427 0,8.64808 -2.3369,13.86917 -2.3369,5.21877 -7.0108,9.89482 -12.2317,12.23171 -5.2189,2.33688 -10.985,2.33688 -13.8691,2.33688 -2.8819,0 -2.8819,0 -5.764,0 -2.884,0 -8.6503,0 -13.8691,-2.33688 -5.221,-2.33689 -9.8947,-7.01294 -12.2316,-12.23171 -2.3368,-5.22109 -2.3368,-10.9849 -2.3368,-13.86917 0,-2.88191 0,-2.88191 0,-2.88191 0,0 0,0 0,-39.67288 0,-39.67296 0,-119.01644 0,-158.68701 0,-39.67292 0,-39.67292 0,-39.67292 0,0 0,0 0,-1.86434 0,-1.86436 0,-5.59538 0.9941,-9.18373 0.9966,-3.58833 2.9848,-7.03398 5.5955,-9.69132 2.6104,-2.65501 5.8409,-4.51935 7.455,-5.4527 1.614,-0.931 1.614,-0.931 3.2304,-1.86434 1.614,-0.93333 4.8444,-2.79767 8.4492,-3.72869 3.6047,-0.93333 7.586,-0.93333 11.1907,0 3.6047,0.93102 6.8352,2.79536 8.4492,3.72869 1.6165,0.93334 1.6165,0.93334 3.2304,1.86434 1.6164,0.93335 4.8447,2.79769 7.9534,6.31588 3.1064,3.51816 6.0913,8.68779 6.0913,19.87621"
       id="path52"
       inkscape:connector-curvature="0" />
    <path
       style="fill:none;stroke:#333333;stroke-width:1.98924601;stroke-linecap:round;stroke-linejoin:round"
       d="m 1318.9857,731.26739 c 0,0 37.584,0 56.3749,0 18.7931,0 18.7931,0 18.7931,0 0,0 0,0 0,0 0,0 0,0 0,2.5053 0,2.50529 0,7.51585 0,10.02113 0,2.50531 0,2.50531 0,2.50531 0,0 0,0 0,0 0,0 0,0 -12.5288,0 -12.5287,0 -37.5839,0 -50.1126,0 -12.5266,0 -12.5266,0 -12.5266,0 0,0 0,0 0,0 0,0 0,0 0,-3.75679 0,-3.75906 0,-11.27495 0,-11.27495"
       id="path54"
       inkscape:connector-curvature="0" />
    <path
       style="fill:none;stroke:#333333;stroke-width:1.98924601;stroke-linecap:round;stroke-linejoin:round"
       d="m 1379.1195,483.21344 c 0,0 7.5162,0 11.2751,0 3.7591,0 3.7591,0 3.7591,0 0,0 0,0 0,0 0,0 0,0 0,20.87971 0,20.87974 0,62.63926 0,83.51898 0,20.8797 0,20.8797 0,20.8797 0,0 0,0 0,0 0,0 0,0 -2.5075,0 -2.5053,0 -7.5159,0 -10.0213,0 -2.5054,0 -2.5054,0 -2.5054,0 0,0 0,0 0,0 0,0 0,0 0,-31.31956 0,-31.31964 0,-93.95883 0,-93.95883"
       id="path56"
       inkscape:connector-curvature="0" />
    <path
       style="fill:none;stroke:#333333;stroke-width:1.98924601;stroke-linecap:round;stroke-linejoin:round"
       d="m 1379.1195,1215.5671 c 0,0 0,-62.6394 0,-93.9589 0,-31.3219 0,-31.3219 0,-31.3219 0,0 0,0 0,0 0,0 0,0 2.5054,0 2.5054,0 7.516,0 10.0213,0 2.5075,0 2.5075,0 2.5075,0 0,0 0,0 0,0 0,0 0,0 0,20.8797 0,20.8821 0,62.6414 0,83.5214 0,20.8797 0,20.8797 0,20.8797 0,0 0,0 0,0 0,0 0,0 -3.7591,0 -3.7589,0 -11.2751,0 -11.2751,0"
       id="path58"
       inkscape:connector-curvature="0" />
    <path
       style="fill:none;stroke:#333333;stroke-width:1.98924601;stroke-linecap:round;stroke-linejoin:round"
       d="m 1431.7377,1586.0129 c 0,0 0,-245.1652 0,-367.7487 0,-122.5813 0,-122.5813 0,-122.5813 0,0 0,0 0,-1.7616 0,-1.7614 0,-5.2841 0.7392,-8.7252 0.7416,-3.441 2.2247,-6.8 4.2692,-9.6679 2.042,-2.8657 4.6433,-5.2398 5.9439,-6.4258 1.3029,-1.1882 1.3029,-1.1882 7.4034,-6.7535 6.1007,-5.5647 18.3043,-16.6972 26.6554,-30.9007 8.3487,-14.206 12.8444,-31.48324 12.4772,-47.95602 -0.3673,-16.47268 -5.6,-32.14068 -8.2151,-39.97465 -2.6153,-7.83405 -2.6153,-7.83405 -5.2306,-15.66802 -2.6151,-7.83399 -7.8458,-23.49968 -17.4481,-36.88928 -9.6025,-13.38961 -23.5769,-24.50319 -38.7841,-30.84242 -15.2096,-6.33921 -31.6517,-7.90651 -39.8739,-8.69247 -8.2201,-0.78364 -8.2201,-0.78364 -16.4423,-1.56729 -8.22,-0.78363 -24.6647,-2.35089 -40.7958,1.00114 -16.1335,3.35215 -31.9558,11.62358 -43.9139,22.95703 -11.9603,11.33576 -20.0563,25.73124 -24.1056,32.93131 -4.0491,7.19773 -4.0491,7.19773 -4.2714,7.5931 -0.2199,0.39298 -0.6643,1.1836 -1.3028,1.82222 -0.641,0.63856 -1.4762,1.12513 -2.3465,1.37075 -0.8677,0.24332 -1.7729,0.24332 -2.2266,0.24332 -0.4517,0 -0.4517,0 -0.9054,0 -0.4514,0 -1.3566,0 -2.2268,-0.24332 -0.8703,-0.24562 -1.7054,-0.73219 -2.3463,-1.37075 -0.6384,-0.63862 -1.0832,-1.42924 -1.3028,-1.82222 -0.2223,-0.39537 -0.2223,-0.39537 -4.2715,-7.5931 -4.0493,-7.20007 -12.1452,-21.59555 -24.1057,-32.93131 -11.9579,-11.33345 -27.7803,-19.60488 -43.9116,-22.95703 -16.1333,-3.35203 -32.5755,-1.78477 -40.798,-1.00114 -8.2222,0.78365 -8.2222,0.78365 -16.4422,1.56729 -8.2224,0.78361 -24.6646,2.35326 -39.874,8.69247 -15.2072,6.33923 -29.1817,17.45045 -38.7841,30.84242 -9.6025,13.3896 -14.8328,29.05529 -17.448,36.88928 -2.6154,7.83397 -2.6154,7.83397 -5.2306,15.66802 -2.6153,7.83397 -7.84578,23.50197 -8.21518,39.97465 -0.3674,16.47278 4.12868,33.75002 12.47728,47.95602 8.3508,14.2035 20.5545,25.336 26.6553,30.9007 6.1005,5.5653 6.1005,5.5653 7.4036,6.7535 1.3006,1.186 3.9017,3.5601 5.946,6.4258 2.0422,2.8679 3.5252,6.2269 4.2669,9.6679 0.7416,3.4411 0.7416,6.9638 0.7416,8.7252 0,1.7616 0,1.7616 0,1.7616 0,0 0,0 0,81.7199 0,81.7226 0,245.1652 0,326.8876 0,81.7225 0,81.7225 0,81.7225 0,0 0,0 0,1.7613 0,1.7616 0,5.2821 -0.7416,8.7231 -0.7417,3.441 -2.2247,6.8002 -4.2669,9.6678 -2.0443,2.8656 -4.6454,5.2398 -5.946,6.4282 -1.3031,1.186 -1.3031,1.186 -7.4036,6.7509 -6.1008,5.5675 -18.3045,16.6973 -26.6553,30.9033 -8.3486,14.2036 -12.84468,31.4834 -12.47728,47.956 0.3694,16.4728 5.59988,32.1406 8.21518,39.9723 2.6152,7.834 2.6152,7.834 5.2306,15.6681 2.6152,7.8339 7.8455,23.5019 17.448,36.8916 9.6024,13.3896 23.5769,24.5009 38.7841,30.8424 15.2094,6.3393 31.6516,7.9064 39.874,8.6901 8.22,0.7835 8.22,0.7835 16.4422,1.5674 8.2225,0.7835 24.6647,2.3509 40.798,-1.0014 16.1313,-3.3518 31.9537,-11.6233 43.9116,-22.9568 11.9605,-11.3335 20.0564,-25.7314 24.1057,-32.9291 4.0492,-7.2 4.0492,-7.2 4.2715,-7.593 0.2196,-0.3952 0.6644,-1.1837 1.3028,-1.8221 0.6409,-0.6388 1.476,-1.1276 2.3463,-1.3709 0.8702,-0.2456 1.7754,-0.2456 2.2268,-0.2456 0.4537,0 0.4537,0 0.9054,0 0.4537,0 1.3589,0 2.2266,0.2456 0.8703,0.2433 1.7055,0.7321 2.3465,1.3709 0.6385,0.6384 1.0829,1.4269 1.3028,1.8221 0.2223,0.393 0.2223,0.393 4.2714,7.593 4.0493,7.1977 12.1453,21.5956 24.1056,32.9291 11.9581,11.3335 27.7804,19.605 43.9114,22.9568 16.1336,3.3523 32.5759,1.7849 40.7983,1.0014 8.2222,-0.7839 8.2222,-0.7839 16.4423,-1.5674 8.2222,-0.7837 24.6643,-2.3508 39.8739,-8.6901 15.2072,-6.3415 29.1816,-17.4528 38.7841,-30.8424 9.6023,-13.3897 14.833,-29.0577 17.4481,-36.8916 2.6153,-7.8316 2.6153,-7.8316 5.2306,-15.6658 2.6151,-7.834 7.8455,-23.5018 8.2151,-39.9746 0.3672,-16.4726 -4.1285,-33.7499 -12.4772,-47.956 -8.3511,-14.206 -20.5523,-25.3358 -26.6554,-30.9033 -6.1005,-5.5649 -6.1005,-5.5649 -7.4034,-6.7509 -1.3006,-1.1884 -3.9019,-3.5626 -6.3159,-7.2679 -2.4142,-3.7076 -4.6364,-8.7464 -4.6364,-19.3125"
       id="path60"
       inkscape:connector-curvature="0" />
    <path
       style="fill:none;stroke:#333333;stroke-width:1.98924601;stroke-linecap:round;stroke-linejoin:round"
       d="m 1394.1537,967.51304 c 0,0 -37.584,0 -56.3771,0 -18.7909,0 -18.7909,0 -18.7909,0 0,0 0,0 0,0 0,0 0,0 0,-2.50525 0,-2.50529 0,-7.51824 0,-10.02349 0,-2.50534 0,-2.50534 0,-2.50534 0,0 0,0 0,0 0,0 0,0 12.5266,0 12.5287,0 37.5839,0 50.1126,0 12.5288,0 12.5288,0 12.5288,0 0,0 0,0 0,0 0,0 0,0 0,3.75911 0,3.75678 0,11.27497 0,11.27497"
       id="path62"
       inkscape:connector-curvature="0" />
    <path
       style="fill:none;stroke:#333333;stroke-width:1.98924601;stroke-linecap:round;stroke-linejoin:round"
       d="m 1181.1762,952.47896 c 0,0 0,7.51589 0,11.27501 0,3.75907 0,3.75907 0,3.75907 0,0 0,0 0,0 0,0 0,0 -12.5266,0 -12.5285,0 -37.584,0 -50.1126,0 -12.5289,0 -12.5289,0 -12.5289,0 0,0 0,0 0,0 0,0 0,0 0,-2.50525 0,-2.50529 0,-7.51824 0,-10.02349 0,-2.50534 0,-2.50534 0,-2.50534 0,0 0,0 0,0 0,0 0,0 18.7931,0 18.791,0 56.375,0 56.375,0"
       id="path64"
       inkscape:connector-curvature="0" />
    <path
       style="fill:none;stroke:#333333;stroke-width:1.98924601;stroke-linecap:round;stroke-linejoin:round"
       d="m 1379.1195,1591.4071 c 0,0 0,-62.6392 0,-93.9588 0,-31.3219 0,-31.3219 0,-31.3219 0,0 0,0 0,0 0,0 0,0 2.5054,0 2.5054,0 7.516,0 10.0213,0 2.5075,0 2.5075,0 2.5075,0 0,0 0,0 0,0 0,0 0,0 0,20.8798 0,20.882 0,62.6416 0,83.5211 0,20.8798 0,20.8798 0,20.8798 0,0 0,0 0,0 0,0 0,0 -3.7591,0 -3.7589,0 -11.2751,0 -11.2751,0"
       id="path66"
       inkscape:connector-curvature="0" />
    <path
       style="fill:none;stroke:#333333;stroke-width:1.98924601;stroke-linecap:round;stroke-linejoin:round"
       d="m 1344.041,1714.1826 c 0,0 31.3196,0 46.9805,0 15.6587,0 15.6587,0 15.6587,0 0,0 0,0 0,0 0,0 0,0 0,2.5054 0,2.5051 0,7.5158 0,10.0211 0,2.5052 0,2.5052 0,2.5052 0,0 0,0 0,0 0,0 0,0 -10.4399,0 -10.4397,0 -31.3197,0 -41.7593,0 -10.44,0 -10.44,0 -10.44,0 0,0 0,0 0,0 0,0 0,0 0,-3.7568 0,-3.7589 0,-11.2749 0,-11.2749"
       id="path68"
       inkscape:connector-curvature="0" />
    <path
       style="fill:none;stroke:#333333;stroke-width:1.98924601;stroke-linecap:round;stroke-linejoin:round"
       d="m 1181.1762,1221.8315 c 0,0 0,119.0162 0,178.5233 0,59.5095 0,59.5095 0,59.5095 0,0 0,0 0,2.8819 0,2.8819 0,8.648 -2.3369,13.869 -2.3369,5.2188 -7.0108,9.8926 -12.2317,12.2318 -5.2189,2.3368 -10.985,2.3368 -13.8691,2.3368 -2.8819,0 -2.8819,0 -5.764,0 -2.884,0 -8.6503,0 -13.8691,-2.3368 -5.221,-2.3392 -9.8947,-7.013 -12.2316,-12.2318 -2.3368,-5.221 -2.3368,-10.9871 -2.3368,-13.869 0,-2.8819 0,-2.8819 0,-2.8819 0,0 0,0 0,-39.673 0,-39.6728 0,-119.0163 0,-158.6893 0,-39.6705 0,-39.6705 0,-39.6705 0,0 0,0 0,-1.8644 0,-1.8667 0,-5.5953 0.9941,-9.1836 0.9966,-3.5885 2.9848,-7.0342 5.5955,-9.6914 2.6104,-2.6549 5.8409,-4.5194 7.455,-5.4528 1.614,-0.9309 1.614,-0.9309 3.2304,-1.8643 1.614,-0.9333 4.8444,-2.7976 8.4492,-3.731 3.6047,-0.9309 7.586,-0.9309 11.1907,0 3.6047,0.9334 6.8352,2.7977 8.4492,3.731 1.6165,0.9334 1.6165,0.9334 3.2304,1.8643 1.6164,0.9334 4.8447,2.7979 7.9534,6.3159 3.1064,3.5159 6.0913,8.6855 6.0913,19.8763"
       id="path70"
       inkscape:connector-curvature="0" />
  </g>
</svg>
