<?xml version="1.0" encoding="UTF-8" standalone="no"?>
<!-- Created with sK1/UniConvertor (http://sk1project.org/) -->

<svg
   xmlns:dc="http://purl.org/dc/elements/1.1/"
   xmlns:cc="http://creativecommons.org/ns#"
   xmlns:rdf="http://www.w3.org/1999/02/22-rdf-syntax-ns#"
   xmlns:svg="http://www.w3.org/2000/svg"
   xmlns="http://www.w3.org/2000/svg"
   xmlns:sodipodi="http://sodipodi.sourceforge.net/DTD/sodipodi-0.dtd"
   xmlns:inkscape="http://www.inkscape.org/namespaces/inkscape"
   width="595.276pt"
   height="841.89pt"
   viewBox="0 0 595.276 841.89"
   fill-rule="evenodd"
   version="1.1"
   id="svg74"
   sodipodi:docname="cama_3mm.svg"
   inkscape:version="0.92.4 (5da689c313, 2019-01-14)">
  <metadata
     id="metadata80">
    <rdf:RDF>
      <cc:Work
         rdf:about="">
        <dc:format>image/svg+xml</dc:format>
        <dc:type
           rdf:resource="http://purl.org/dc/dcmitype/StillImage" />
        <dc:title></dc:title>
      </cc:Work>
    </rdf:RDF>
  </metadata>
  <defs
     id="defs78" />
  <sodipodi:namedview
     pagecolor="#ffffff"
     bordercolor="#666666"
     borderopacity="1"
     objecttolerance="10"
     gridtolerance="10"
     guidetolerance="10"
     inkscape:pageopacity="0"
     inkscape:pageshadow="2"
     inkscape:window-width="1440"
     inkscape:window-height="837"
     id="namedview76"
     showgrid="false"
     inkscape:zoom="0.29732601"
     inkscape:cx="99.756115"
     inkscape:cy="603.75068"
     inkscape:window-x="-4"
     inkscape:window-y="-4"
     inkscape:window-maximized="1"
     inkscape:current-layer="g72" />
  <g
     id="g72"
     transform="translate(-149.82788,-32.105974)">
    <path
       style="fill:none;stroke:#333333;stroke-width:0.99356079;stroke-linecap:round;stroke-linejoin:round"
       d="m 532.05044,-126.18445 c 0,0 -90.73082,0 -136.09684,0 -45.36597,0 -45.36597,0 -45.36597,0 0,0 0,0 0,0 0,0 0,0 0,-1.25144 0,-1.25141 0,-3.75435 0,-5.00578 0,-1.25151 0,-1.25151 0,-1.25151 0,0 0,0 0,0 0,0 0,0 -10.42873,0 -10.42872,0 -31.28617,0 -41.7149,0 -10.42872,0 -10.42872,0 -10.42872,0 0,0 0,0 0,0 0,0 0,0 0,1.25151 0,1.25143 0,3.75437 0,5.00578 0,1.25144 0,1.25144 0,1.25144 0,0 0,0 0,0 0,0 0,0 -30.244,0 -30.244,0 -90.7308,0 -120.97481,0 -30.24352,0 -30.24352,0 -30.24352,0 0,0 0,0 0,0 0,0 0,0 0,-1.25144 0,-1.25141 0,-3.75435 0,-5.00578 0,-1.25151 0,-1.25151 0,-1.25151 0,0 0,0 0,0 0,0 0,0 -10.428851,0 -10.428841,0 -31.28652,0 -41.71536,0 -10.428838,0 -10.428838,0 -10.428838,0 0,0 0,0 0,0 0,0 0,0 0,1.25151 0,1.25143 0,3.75437 0,5.00578 0,1.25144 0,1.25144 0,1.25144 0,0 0,0 0,0 0,0 0,0 -6.0488,0 -6.048682,0 -18.146165,0 -24.194846,0 -6.0487881,0 -6.0487881,0 -6.0487881,0 0,0 0,0 0,0 0,0 0,0 0,10.22021 0,10.22038 0,30.660846 0,40.881134 0,10.220288 0,10.220288 0,10.220288 0,0 0,0 0,0 0,0 0,0 -1.2514586,0 -1.2514583,0 -3.7543872,0 -5.0058455,0 -1.25146643,0 -1.25146643,0 -1.25146643,0 0,0 0,0 0,0 0,0 0,0 0,10.42884 0,10.428838 0,31.286518 0,41.715006 0,10.4287236 0,10.4287236 0,10.4287236 0,0 0,0 0,0 0,0 0,0 1.25146643,0 1.2514583,0 3.7543872,0 5.0058455,0 1.2514586,0 1.2514586,0 1.2514586,0 0,0 0,0 0,0 0,0 0,0 0,20.8586144 0,20.857445 0,62.572336 0,83.430954 0,20.85745 0,20.85745 0,20.85745 0,0 0,0 0,0 0,0 0,0 -1.2514586,0 -1.2514583,0 -3.7543872,0 -5.0058455,0 -1.25146643,0 -1.25146643,0 -1.25146643,0 0,0 0,0 0,0 0,0 0,0 0,10.42872 0,10.42871 0,31.28616 0,41.71488 0,10.42873 0,10.42873 0,10.42873 0,0 0,0 0,0 0,0 0,0 1.25146643,0 1.2514583,0 3.7543872,0 5.0058455,0 1.2514586,0 1.2514586,0 1.2514586,0 0,0 0,0 0,0 0,0 0,0 0,10.22076 0,10.22075 0,30.66108 0,40.88068 0,10.22077 0,10.22077 0,10.22077 0,0 0,0 0,0 0,0 0,0 6.0487881,0 6.048681,0 18.146164,0 24.194846,0 6.0488,0 6.0488,0 6.0488,0 0,0 0,0 0,0 0,0 0,0 0,1.25129 0,1.25131 0,3.7551 0,5.00639 0,1.25132 0,1.25132 0,1.25132 0,0 0,0 0,0 0,0 0,0 10.428838,0 10.42884,0 31.286519,0 41.71536,0 10.428851,0 10.428851,0 10.428851,0 0,0 0,0 0,0 0,0 0,0 0,-1.25132 0,-1.25129 0,-3.75508 0,-5.00639 0,-1.25129 0,-1.25129 0,-1.25129 0,0 0,0 0,0 0,0 0,0 30.24352,0 30.24401,0 90.73081,0 120.97481,0 30.244,0 30.244,0 30.244,0 0,0 0,0 0,0 0,0 0,0 0,1.25129 0,1.25131 0,3.7551 0,5.00639 0,1.25132 0,1.25132 0,1.25132 0,0 0,0 0,0 0,0 0,0 10.42872,0 10.42873,0 31.28618,0 41.7149,0 10.42873,0 10.42873,0 10.42873,0 0,0 0,0 0,0 0,0 0,0 0,-1.25132 0,-1.25129 0,-3.75508 0,-5.00639 0,-1.25129 0,-1.25129 0,-1.25129 0,0 0,0 0,0 0,0 0,0 30.24397,0 30.24403,0 90.73084,0 120.97484,0 30.244,0 30.244,0 30.244,0 0,0 0,0 0,0 0,0 0,0 0,1.25129 0,1.25131 0,3.7551 0,5.00639 0,1.25132 0,1.25132 0,1.25132 0,0 0,0 0,0 0,0 0,0 10.42873,0 10.4287,0 31.28615,0 41.71489,0 10.42871,0 10.42871,0 10.42871,0 0,0 0,0 0,0 0,0 0,0 0,-1.25132 0,-1.25129 0,-3.75508 0,-5.00639 0,-1.25129 0,-1.25129 0,-1.25129 0,0 0,0 0,0 0,0 0,0 6.04972,0 6.04858,0 18.1457,0 24.19427,0 6.04858,0 6.04858,0 6.04858,0 0,0 0,0 0,0 0,0 0,0 0,-10.22077 0,-10.2196 0,-30.65993 0,-40.88068 0,-10.22076 0,-10.22076 0,-10.22076 0,0 0,0 0,0 0,0 0,0 1.25129,0 1.25247,0 3.75511,0 5.0064,0 1.25131,0 1.25131,0 1.25131,0 0,0 0,0 0,0 0,0 0,0 0,-10.42873 0,-10.42872 0,-31.28617 0,-41.71488 0,-10.42872 0,-10.42872 0,-10.42872 0,0 0,0 0,0 0,0 0,0 -1.25131,0 -1.25129,0 -3.75393,0 -5.0064,0 -1.25129,0 -1.25129,0 -1.25129,0 0,0 0,0 0,0 0,0 0,0 0,-20.85745 0,-20.858618 0,-62.573509 0,-83.430954 0,-20.8586144 0,-20.8586144 0,-20.8586144 0,0 0,0 0,0 0,0 0,0 1.25129,0 1.25247,0 3.75511,0 5.0064,0 1.25131,0 1.25131,0 1.25131,0 0,0 0,0 0,0 0,0 0,0 0,-10.4287236 0,-10.428488 0,-31.286168 0,-41.715006 0,-10.42884 0,-10.42884 0,-10.42884 0,0 0,0 0,0 0,0 0,0 -1.25131,0 -1.25129,0 -3.75393,0 -5.0064,0 -1.25129,0 -1.25129,0 -1.25129,0 0,0 0,0 0,0 0,0 0,0 0,-10.220288 0,-10.220288 0,-30.660754 0,-40.881134 0,-10.22021 0,-10.22021 0,-10.22021 0,0 0,0 0,0 0,0 0,0 -6.04858,0 -6.04857,0 -18.14569,0 -24.19427,0 -6.04972,0 -6.04972,0 -6.04972,0 0,0 0,0 0,0 0,0 0,0 0,-1.25144 0,-1.25141 0,-3.75435 0,-5.00578 0,-1.25151 0,-1.25151 0,-1.25151 0,0 0,0 0,0 0,0 0,0 -10.42871,0 -10.42874,0 -31.28619,0 -41.71489,0 -10.42873,0 -10.42873,0 -10.42873,0 0,0 0,0 0,0 0,0 0,0 0,1.87719 0,1.87717 0,5.63154 0,5.63154"
       id="path2"
       inkscape:connector-curvature="0" />
    <path
       style="fill:none;stroke:#333333;stroke-width:0.99356079;stroke-linecap:round;stroke-linejoin:round"
       d="m 630.91534,255.51162 c 0,0 -311.61388,0 -467.42084,0 -155.8070331,0 -155.8070331,0 -155.8070331,0 0,0 0,0 0,0 0,0 0,0 0,3.12884 0,3.12886 0,9.38538 0,12.51423 0,3.12886 0,3.12886 0,3.12886 0,0 0,0 0,0 0,0 0,0 -1.2514586,0 -1.2514583,0 -3.7543872,0 -5.0058455,0 -1.25146643,0 -1.25146643,0 -1.25146643,0 0,0 0,0 0,0 0,0 0,0 0,6.25769 0,6.25651 0,18.77196 0,25.02847 0,6.2577 0,6.2577 0,6.2577 0,0 0,0 0,0 0,0 0,0 1.25146643,0 1.2514583,0 3.7543872,0 5.0058455,0 1.2514586,0 1.2514586,0 1.2514586,0 0,0 0,0 0,0 0,0 0,0 0,11.47205 0,11.47092 0,34.41502 0,45.8871 0,11.47091 0,11.47091 0,11.47091 0,0 0,0 0,0 0,0 0,0 -1.2514586,0 -1.2514583,0 -3.7543872,0 -5.0058455,0 -1.25146643,0 -1.25146643,0 -1.25146643,0 0,0 0,0 0,0 0,0 0,0 0,6.25768 0,6.25771 0,18.77193 0,25.02965 0,6.25653 0,6.25653 0,6.25653 0,0 0,0 0,0 0,0 0,0 1.25146643,0 1.2514583,0 3.7543872,0 5.0058455,0 1.2514586,0 1.2514586,0 1.2514586,0 0,0 0,0 0,0 0,0 0,0 0,3.12885 0,3.12885 0,9.38654 0,12.51422 0,3.12885 0,3.12885 0,3.12885 0,0 0,0 0,0 0,0 0,0 103.8714131,0 103.87128,0 311.61387,0 415.48516,0 103.8713,0 103.8713,0 103.8713,0 0,0 0,0 0,0 0,0 0,0 0,-3.12885 0,-3.12768 0,-9.38537 0,-12.51422 0,-3.12885 0,-3.12885 0,-3.12885 0,0 0,0 0,0 0,0 0,0 1.25129,0 1.25247,0 3.75511,0 5.0064,0 1.25131,0 1.25131,0 1.25131,0 0,0 0,0 0,0 0,0 0,0 0,-6.25653 0,-6.25772 0,-18.77194 0,-25.02965 0,-6.25768 0,-6.25768 0,-6.25768 0,0 0,0 0,0 0,0 0,0 -1.25131,0 -1.25129,0 -3.75393,0 -5.0064,0 -1.25129,0 -1.25129,0 -1.25129,0 0,0 0,0 0,0 0,0 0,0 0,-11.47091 0,-11.47208 0,-34.41618 0,-45.8871 0,-11.47205 0,-11.47205 0,-11.47205 0,0 0,0 0,0 0,0 0,0 1.25129,0 1.25247,0 3.75511,0 5.0064,0 1.25131,0 1.25131,0 1.25131,0 0,0 0,0 0,0 0,0 0,0 0,-6.2577 0,-6.25651 0,-18.77196 0,-25.02847 0,-6.25769 0,-6.25769 0,-6.25769 0,0 0,0 0,0 0,0 0,0 -1.25131,0 -1.25129,0 -3.75393,0 -5.0064,0 -1.25129,0 -1.25129,0 -1.25129,0 0,0 0,0 0,0 0,0 0,0 0,-4.69327 0,-4.69328 0,-14.07866 0,-14.07866"
       id="path4"
       inkscape:connector-curvature="0" />
    <path
       style="fill:none;stroke:#333333;stroke-width:0.99356079;stroke-linecap:round;stroke-linejoin:round"
       d="m 350.58763,274.28355 c 0,0 0,3.75392 0,5.63147 0,1.87755 0,1.87755 0,1.87755 0,0 0,0 0,0 0,0 0,0 -10.42873,0 -10.42872,0 -31.28617,0 -41.7149,0 -10.42872,0 -10.42872,0 -10.42872,0 0,0 0,0 0,0 0,0 0,0 0,-1.25133 0,-1.25248 0,-3.75508 0,-5.00639 0,-1.2513 0,-1.2513 0,-1.2513 0,0 0,0 0,0 0,0 0,0 15.64308,0 15.6431,0 46.92927,0 46.92927,0"
       id="path6"
       inkscape:connector-curvature="0" />
    <path
       style="fill:none;stroke:#333333;stroke-width:0.99356079;stroke-linecap:round;stroke-linejoin:round"
       d="m 176.94811,311.82741 c 0,0 28.54871,0 42.82366,0 14.27376,0 14.27376,0 14.27376,0 0,0 0,0 0,0 0,0 0,0 0,15.6431 0,15.64308 0,46.93041 0,62.57349 0,15.64308 0,15.64308 0,15.64308 0,0 0,0 0,0 0,0 0,0 -9.51624,0 -9.51624,0 -28.54869,0 -38.06496,0 -9.51622,0 -9.51622,0 -9.51622,0 0,0 0,0 0,0 0,0 0,0 0,-23.46521 0,-23.46521 0,-70.39446 0,-70.39446"
       id="path8"
       inkscape:connector-curvature="0" />
    <path
       style="fill:none;stroke:#333333;stroke-width:0.99356079;stroke-linecap:round;stroke-linejoin:round"
       d="m 158.17617,311.82741 c 0,0 0,46.92925 0,70.39446 0,23.46521 0,23.46521 0,23.46521 0,0 0,0 0,0 0,0 0,0 -9.51626,0 -9.51621,0 -28.54986,0 -38.06575,0 -9.51637,0 -9.51637,0 -9.51637,0 0,0 0,0 0,0 0,0 0,0 0,-15.64308 0,-15.64308 0,-46.93041 0,-62.57349 0,-15.6431 0,-15.6431 0,-15.6431 0,0 0,0 0,0 0,0 0,0 14.27447,0 14.27403,0 42.82391,0 42.82391,0"
       id="path10"
       inkscape:connector-curvature="0" />
    <path
       style="fill:none;stroke:#333333;stroke-width:0.99356079;stroke-linecap:round;stroke-linejoin:round"
       d="m 82.305866,311.82741 c 0,0 0,46.92925 0,70.39446 0,23.46521 0,23.46521 0,23.46521 0,0 0,0 0,0 0,0 0,0 -9.516238,0 -9.516356,0 -28.549066,0 -38.065304,0 -9.516359,0 -9.516359,0 -9.516359,0 0,0 0,0 0,0 0,0 0,0 0,-15.64308 0,-15.64308 0,-46.93041 0,-62.57349 0,-15.6431 0,-15.6431 0,-15.6431 0,0 0,0 0,0 0,0 0,0 14.274477,0 14.274472,0 42.823424,0 42.823424,0"
       id="path12"
       inkscape:connector-curvature="0" />
    <path
       style="fill:none;stroke:#333333;stroke-width:0.99356079;stroke-linecap:round;stroke-linejoin:round"
       d="m 328.68801,311.82741 c 0,0 28.5487,0 42.82249,0 14.27494,0 14.27494,0 14.27494,0 0,0 0,0 0,0 0,0 0,0 0,15.6431 0,15.64308 0,46.93041 0,62.57349 0,15.64308 0,15.64308 0,15.64308 0,0 0,0 0,0 0,0 0,0 -9.51624,0 -9.51624,0 -28.54873,0 -38.06496,0 -9.51623,0 -9.51623,0 -9.51623,0 0,0 0,0 0,0 0,0 0,0 0,-23.46521 0,-23.46521 0,-70.39446 0,-70.39446"
       id="path14"
       inkscape:connector-curvature="0" />
    <path
       style="fill:none;stroke:#333333;stroke-width:0.99356079;stroke-linecap:round;stroke-linejoin:round"
       d="m 309.91605,311.82741 c 0,0 0,46.92925 0,70.39446 0,23.46521 0,23.46521 0,23.46521 0,0 0,0 0,0 0,0 0,0 -9.51623,0 -9.51739,0 -28.54987,0 -38.06612,0 -9.51623,0 -9.51623,0 -9.51623,0 0,0 0,0 0,0 0,0 0,0 0,-15.64308 0,-15.64308 0,-46.93041 0,-62.57349 0,-15.6431 0,-15.6431 0,-15.6431 0,0 0,0 0,0 0,0 0,0 14.27496,0 14.27376,0 42.82362,0 42.82362,0"
       id="path16"
       inkscape:connector-curvature="0" />
    <path
       style="fill:none;stroke:#333333;stroke-width:0.99356079;stroke-linecap:round;stroke-linejoin:round"
       d="m 43.979901,274.28355 c 0,0 31.286518,0 46.929835,0 15.643214,0 15.643214,0 15.643214,0 0,0 0,0 0,0 0,0 0,0 0,1.2513 0,1.25131 0,3.75391 0,5.00639 0,1.25133 0,1.25133 0,1.25133 0,0 0,0 0,0 0,0 0,0 -10.428851,0 -10.428841,0 -31.28652,0 -41.71536,0 -10.428838,0 -10.428838,0 -10.428838,0 0,0 0,0 0,0 0,0 0,0 0,-1.87755 0,-1.87755 0,-5.63147 0,-5.63147"
       id="path18"
       inkscape:connector-curvature="0" />
    <path
       style="fill:none;stroke:#333333;stroke-width:0.99356079;stroke-linecap:round;stroke-linejoin:round"
       d="m 480.42673,311.82741 c 0,0 28.54987,0 42.82366,0 14.27495,0 14.27495,0 14.27495,0 0,0 0,0 0,0 0,0 0,0 0,15.6431 0,15.64308 0,46.93041 0,62.57349 0,15.64308 0,15.64308 0,15.64308 0,0 0,0 0,0 0,0 0,0 -9.51623,0 -9.51625,0 -28.54873,0 -38.06495,0 -9.51743,0 -9.51743,0 -9.51743,0 0,0 0,0 0,0 0,0 0,0 0,-23.46521 0,-23.46521 0,-70.39446 0,-70.39446"
       id="path20"
       inkscape:connector-curvature="0" />
    <path
       style="fill:none;stroke:#333333;stroke-width:0.99356079;stroke-linecap:round;stroke-linejoin:round"
       d="m 556.29726,405.68708 c 0,0 0,-46.93042 0,-70.39446 0,-23.46521 0,-23.46521 0,-23.46521 0,0 0,0 0,0 0,0 0,0 9.51627,0 9.51622,0 28.54869,0 38.06492,0 9.51627,0 9.51627,0 9.51627,0 0,0 0,0 0,0 0,0 0,0 0,15.6431 0,15.64308 0,46.93041 0,62.57349 0,15.64308 0,15.64308 0,15.64308 0,0 0,0 0,0 0,0 0,0 -14.27379,0 -14.27495,0 -42.82367,0 -42.82367,0"
       id="path22"
       inkscape:connector-curvature="0" />
    <path
       style="fill:none;stroke:#333333;stroke-width:0.99356079;stroke-linecap:round;stroke-linejoin:round"
       d="m 404.55739,311.82741 c 0,0 28.54869,0 42.82363,0 14.27379,0 14.27379,0 14.27379,0 0,0 0,0 0,0 0,0 0,0 0,15.6431 0,15.64308 0,46.93041 0,62.57349 0,15.64308 0,15.64308 0,15.64308 0,0 0,0 0,0 0,0 0,0 -9.51625,0 -9.51624,0 -28.54871,0 -38.06495,0 -9.51622,0 -9.51622,0 -9.51622,0 0,0 0,0 0,0 0,0 0,0 0,-23.46521 0,-23.46521 0,-70.39446 0,-70.39446"
       id="path24"
       inkscape:connector-curvature="0" />
    <path
       style="fill:none;stroke:#333333;stroke-width:0.99356079;stroke-linecap:round;stroke-linejoin:round"
       d="m 532.05044,281.79257 c 0,0 0,-3.7551 0,-5.63149 0,-1.87753 0,-1.87753 0,-1.87753 0,0 0,0 0,0 0,0 0,0 10.42873,0 10.4287,0 31.28615,0 41.71489,0 10.42871,0 10.42871,0 10.42871,0 0,0 0,0 0,0 0,0 0,0 0,1.2513 0,1.25131 0,3.75391 0,5.00639 0,1.25133 0,1.25133 0,1.25133 0,0 0,0 0,0 0,0 0,0 -15.64308,0 -15.6431,0 -46.92925,0 -46.92925,0"
       id="path26"
       inkscape:connector-curvature="0" />
    <path
       style="fill:none;stroke:#333333;stroke-width:0.99356079;stroke-linecap:round;stroke-linejoin:round"
       d="m 7.6874669,619.68737 c 0,0 131.9516131,0 197.9261831,0 65.97574,0 65.97574,0 65.97574,0 0,0 0,0 0.57599,0 0.57604,0 1.72802,0 2.77136,-0.46733 1.04217,-0.46734 1.97686,-1.40087 2.44304,-2.44304 0.46734,-1.04334 0.46734,-2.19532 0.46734,-2.77133 0,-0.57599 0,-0.57599 0,-0.57599 0,0 0,0 0,-3.12885 0,-3.12887 0,-9.38541 0,-12.51424 0,-3.12885 0,-3.12885 0,-3.12885 0,0 0,0 0,-0.27691 0,-0.27572 0,-0.82951 -0.10984,-1.37165 -0.10982,-0.5421 -0.32948,-1.07253 -0.63559,-1.53287 -0.30493,-0.46035 -0.69635,-0.85173 -0.89144,-1.04801 -0.19631,-0.19511 -0.19631,-0.19511 -0.39139,-0.39023 -0.19629,-0.19628 -0.58655,-0.58768 -1.04805,-0.89263 -0.46032,-0.30493 -0.99075,-0.52575 -1.53286,-0.63559 -0.5421,-0.10983 -1.09475,-0.10983 -1.37166,-0.10983 -0.2769,0 -0.2769,0 -0.2769,0 0,0 0,0 -3.12885,0 -3.12882,0 -9.38538,0 -12.51422,0 -3.12885,0 -3.12885,0 -3.12885,0 0,0 0,0 0,0 0,0 0,0 0,-15.64307 0,-15.64309 0,-46.92924 0,-62.57234 0,-15.64424 0,-15.64424 0,-15.64424 0,0 0,0 0,0 0,0 0,0 63.01629,0 63.01635,0 189.04893,0 252.06526,0 63.01632,0 63.01632,0 63.01632,0 0,0 0,0 0,0 0,0 0,0 0,-2.08552 0,-2.0855 0,-6.2577 0,-8.34321 0,-2.08552 0,-2.08552 0,-2.08552 0,0 0,0 0,0 0,0 0,0 1.25129,0 1.25247,0 3.75511,0 5.0064,0 1.25131,0 1.25131,0 1.25131,0 0,0 0,0 0,0 0,0 0,0 0,-5.21436 0,-5.21435 0,-15.64306 0,-20.85744 0,-5.21435 0,-5.21435 0,-5.21435 0,0 0,0 0,0 0,0 0,0 -1.25131,0 -1.25129,0 -3.75393,0 -5.0064,0 -1.25129,0 -1.25129,0 -1.25129,0 0,0 0,0 0,0 0,0 0,0 0,-2.08667 0,-2.08554 0,-6.25654 0,-8.34206 0,-2.0867 0,-2.0867 0,-2.0867 0,0 0,0 0,0 0,0 0,0 -103.8713,0 -103.87129,0 -311.61388,0 -415.48516,0 -103.8714131,0 -103.8714131,0 -103.8714131,0 0,0 0,0 0,0 0,0 0,0 0,3.12886 0,3.12886 0,9.38657 0,12.51542 0,3.12769 0,3.12769 0,3.12769 0,0 0,0 0,0 0,0 0,0 -1.2514586,0 -1.2514583,0 -3.7543872,0 -5.0058455,0 -1.25146643,0 -1.25146643,0 -1.25146643,0 0,0 0,0 0,0 0,0 0,0 0,6.25767 0,6.25772 0,18.77194 0,25.02966 0,6.25653 0,6.25653 0,6.25653 0,0 0,0 0,0 0,0 0,0 1.25146643,0 1.2514583,0 3.7543872,0 5.0058455,0 1.2514586,0 1.2514586,0 1.2514586,0 0,0 0,0 0,0 0,0 0,0 0,11.47206 0,11.47204 0,34.41503 0,45.88708 0,11.47206 0,11.47206 0,11.47206 0,0 0,0 0,0 0,0 0,0 -1.2514586,0 -1.2514583,0 -3.7543872,0 -5.0058455,0 -1.25146643,0 -1.25146643,0 -1.25146643,0 0,0 0,0 0,0 0,0 0,0 0,6.25654 0,6.2577 0,18.77191 0,25.02963 0,6.25768 0,6.25768 0,6.25768 0,0 0,0 0,0 0,0 0,0 1.25146643,0 1.2514583,0 3.7543872,0 5.0058455,0 1.2514586,0 1.2514586,0 1.2514586,0 0,0 0,0 0,0 0,0 0,0 0,4.69212 0,4.69329 0,14.07983 0,14.07983"
       id="path28"
       inkscape:connector-curvature="0" />
    <path
       style="fill:none;stroke:#333333;stroke-width:0.99356079;stroke-linecap:round;stroke-linejoin:round"
       d="m 234.04553,494.54037 c 0,0 0,46.93041 0,70.39563 0,23.46402 0,23.46402 0,23.46402 0,0 0,0 0,0 0,0 0,0 -9.51624,0 -9.51624,0 -28.54869,0 -38.06496,0 -9.51622,0 -9.51622,0 -9.51622,0 0,0 0,0 0,0 0,0 0,0 0,-15.64307 0,-15.64309 0,-46.92924 0,-62.57234 0,-15.64424 0,-15.64424 0,-15.64424 0,0 0,0 0,0 0,0 0,0 14.27377,0 14.27494,0 42.82365,0 42.82365,0"
       id="path30"
       inkscape:connector-curvature="0" />
    <path
       style="fill:none;stroke:#333333;stroke-width:0.99356079;stroke-linecap:round;stroke-linejoin:round"
       d="m 158.17617,494.54037 c 0,0 0,46.93041 0,70.39563 0,23.46402 0,23.46402 0,23.46402 0,0 0,0 0,0 0,0 0,0 -9.51626,0 -9.51621,0 -28.54986,0 -38.06575,0 -9.51637,0 -9.51637,0 -9.51637,0 0,0 0,0 0,0 0,0 0,0 0,-15.64307 0,-15.64309 0,-46.92924 0,-62.57234 0,-15.64424 0,-15.64424 0,-15.64424 0,0 0,0 0,0 0,0 0,0 14.27447,0 14.27403,0 42.82391,0 42.82391,0"
       id="path32"
       inkscape:connector-curvature="0" />
    <path
       style="fill:none;stroke:#333333;stroke-width:0.99356079;stroke-linecap:round;stroke-linejoin:round"
       d="m 82.305866,494.54037 c 0,0 0,46.93041 0,70.39563 0,23.46402 0,23.46402 0,23.46402 0,0 0,0 0,0 0,0 0,0 -9.516238,0 -9.516356,0 -28.549066,0 -38.065304,0 -9.516359,0 -9.516359,0 -9.516359,0 0,0 0,0 0,0 0,0 0,0 0,-15.64307 0,-15.64309 0,-46.92924 0,-62.57234 0,-15.64424 0,-15.64424 0,-15.64424 0,0 0,0 0,0 0,0 0,0 14.274477,0 14.274472,0 42.823424,0 42.823424,0"
       id="path34"
       inkscape:connector-curvature="0" />
    <path
       style="fill:none;stroke:#333333;stroke-width:0.99356079;stroke-linecap:round;stroke-linejoin:round"
       d="m 532.05044,464.5055 c 0,0 0,-3.75392 0,-5.63146 0,-1.87753 0,-1.87753 0,-1.87753 0,0 0,0 0,0 0,0 0,0 10.42873,0 10.4287,0 31.28615,0 41.71489,0 10.42871,0 10.42871,0 10.42871,0 0,0 0,0 0,0 0,0 0,0 0,1.25129 0,1.25248 0,3.7551 0,5.00638 0,1.25132 0,1.25132 0,1.25132 0,0 0,0 0,0 0,0 0,0 -15.64308,0 -15.6431,0 -46.92925,0 -46.92925,0"
       id="path36"
       inkscape:connector-curvature="0" />
    <path
       style="fill:none;stroke:#333333;stroke-width:0.99356079;stroke-linecap:round;stroke-linejoin:round"
       d="m 288.01528,464.5055 c 0,0 0,-3.75392 0,-5.63146 0,-1.87753 0,-1.87753 0,-1.87753 0,0 0,0 0,0 0,0 0,0 10.42872,0 10.42873,0 31.28618,0 41.7149,0 10.42873,0 10.42873,0 10.42873,0 0,0 0,0 0,0 0,0 0,0 0,1.25129 0,1.25248 0,3.7551 0,5.00638 0,1.25132 0,1.25132 0,1.25132 0,0 0,0 0,0 0,0 0,0 -15.64308,0 -15.64309,0 -46.92927,0 -46.92927,0"
       id="path38"
       inkscape:connector-curvature="0" />
    <path
       style="fill:none;stroke:#333333;stroke-width:0.99356079;stroke-linecap:round;stroke-linejoin:round"
       d="m 106.55295,464.5055 c 0,0 -31.286531,0 -46.929848,0 -15.643201,0 -15.643201,0 -15.643201,0 0,0 0,0 0,0 0,0 0,0 0,-1.25132 0,-1.25128 0,-3.7539 0,-5.00638 0,-1.25129 0,-1.25129 0,-1.25129 0,0 0,0 0,0 0,0 0,0 10.428838,0 10.42884,0 31.286519,0 41.71536,0 10.428851,0 10.428851,0 10.428851,0 0,0 0,0 0,0 0,0 0,0 0,1.87753 0,1.87754 0,5.63146 0,5.63146"
       id="path40"
       inkscape:connector-curvature="0" />
    <path
       style="fill:none;stroke:#333333;stroke-width:0.99356079;stroke-linecap:round;stroke-linejoin:round"
       d="m 827.64151,48.574017 c 0,0 0,-31.286167 0,-46.9292511 0,-15.6430849 0,-15.6430849 0,-15.6430849 0,0 0,0 0,0 0,0 0,0 1.25132,0 1.2513,0 3.75391,0 5.00522,0 1.25248,0 1.25248,0 1.25248,0 0,0 0,0 0,0 0,0 0,0 0,10.4287229 0,10.4287237 0,31.2861681 0,41.7148921 0,10.428721 0,10.428721 0,10.428721 0,0 0,0 0,0 0,0 0,0 -1.87755,0 -1.87753,0 -5.63147,0 -5.63147,0"
       id="path42"
       inkscape:connector-curvature="0" />
    <path
       style="fill:none;stroke:#333333;stroke-width:0.99356079;stroke-linecap:round;stroke-linejoin:round"
       d="m 853.92246,-11.304096 c 0,-5.278619 1.10993,-7.795255 2.31567,-9.646277 1.20573,-1.851373 2.50495,-3.037016 3.15456,-3.629839 0.65078,-0.592824 0.65078,-0.592824 3.69783,-3.372687 3.04706,-2.779861 9.14236,-8.339706 13.31339,-15.434531 4.16984,-7.094827 6.41544,-15.724635 6.23199,-23.952299 -0.18344,-8.227545 -2.79703,-16.052944 -4.10324,-19.965636 -1.30622,-3.912582 -1.30622,-3.912582 -2.61245,-7.825171 -1.30621,-3.912698 -3.91867,-11.737974 -8.71475,-18.425744 -4.79609,-6.68767 -11.77582,-12.23783 -19.3713,-15.40437 -7.59664,-3.16655 -15.80898,-3.94956 -19.91576,-4.34105 -4.10558,-0.39148 -4.10558,-0.39148 -8.21234,-0.78296 -4.10558,-0.39152 -12.31912,-1.17451 -20.37608,0.49973 -8.05812,1.67414 -15.96089,5.80554 -21.93351,11.46659 -5.97378,5.66103 -10.01746,12.8519 -12.03989,16.44727 -2.0224,3.5955 -2.0224,3.5955 -2.13341,3.79248 -0.10981,0.19698 -0.33181,0.59118 -0.65077,0.91014 -0.32013,0.3191 -0.73722,0.56291 -1.17186,0.6849 -0.43346,0.12184 -0.88561,0.12184 -1.11227,0.12184 -0.22548,0 -0.22548,0 -0.45216,0 -0.22547,0 -0.67763,0 -1.11225,-0.12184 -0.43462,-0.12199 -0.85175,-0.3658 -1.17188,-0.6849 -0.31893,-0.31896 -0.54094,-0.71316 -0.65075,-0.91014 -0.111,-0.19698 -0.111,-0.19698 -2.13343,-3.79236 -2.02243,-3.59538 -6.06609,-10.78612 -12.03988,-16.44727 -5.97262,-5.66103 -13.87537,-9.79235 -21.93233,-11.46656 -8.05814,-1.67425 -16.27048,-0.89125 -20.37727,-0.49982 -4.10672,0.39142 -4.10672,0.39142 -8.21233,0.7829 -4.10678,0.39149 -12.31913,1.17437 -19.91574,4.34091 -7.59549,3.16654 -14.57522,8.71663 -19.3713,15.40439 -4.79612,6.68766 -7.40855,14.513048 -8.71476,18.425745 -1.30622,3.912708 -1.30622,3.912708 -2.61245,7.82529 -1.30623,3.912692 -3.91866,11.738091 -4.10326,19.965636 -0.18343,8.227664 2.06216,16.857472 6.232,23.952299 4.17102,7.094825 10.26632,12.65467 13.31341,15.434531 3.04705,2.779863 3.04705,2.779863 3.69783,3.372687 0.64961,0.592823 1.94881,1.778466 2.96993,3.210286 1.01997,1.431816 1.76073,3.109453 2.13109,4.828102 0.37039,1.718649 0.37039,3.47819 0.37039,4.357959 0,0.879769 0,0.879769 0,0.879769 0,0 0,0 0,40.817596 0,40.816427 0,122.45162 0,163.26805 0,40.8176 0,40.8176 0,40.8176 0,0 0,0 0,0.87976 0,0.87977 0,2.63814 -0.37039,4.35679 -0.37036,1.71866 -1.11112,3.39758 -2.13109,4.82882 -1.02112,1.43239 -2.32032,2.61709 -2.96993,3.21062 -0.65078,0.59235 -0.65078,0.59235 -3.69783,3.37187 -3.04709,2.78068 -9.14239,8.3397 -13.31341,15.43511 -4.16984,7.09426 -6.41543,15.72488 -6.232,23.9524 0.1846,8.22757 2.79703,16.05319 4.10326,19.96602 1.30623,3.9128 1.30623,3.9128 2.61245,7.82444 1.30621,3.91284 3.91864,11.73846 8.71476,18.42612 4.79608,6.68765 11.77581,12.23733 19.3713,15.40474 7.59661,3.16623 15.80896,3.94903 19.91574,4.34044 4.10561,0.3914 4.10561,0.3914 8.21233,0.78279 4.10679,0.3914 12.31913,1.17418 20.37727,-0.50006 8.05696,-1.67425 15.95971,-5.80554 21.93233,-11.46624 5.97379,-5.66066 10.01745,-12.85187 12.03988,-16.44689 2.02243,-3.59504 2.02243,-3.59504 2.13343,-3.79248 0.10981,-0.19744 0.33182,-0.59118 0.65075,-0.91015 0.32013,-0.31894 0.73726,-0.56314 1.17188,-0.68466 0.43462,-0.12268 0.88678,-0.12268 1.11225,-0.12268 0.22668,0 0.22668,0 0.45216,0 0.22666,0 0.67881,0 1.11227,0.12268 0.43464,0.12152 0.85173,0.36572 1.17186,0.68466 0.31896,0.31897 0.54096,0.71271 0.65077,0.91015 0.11101,0.19744 0.11101,0.19744 2.13341,3.79248 2.02243,3.59502 6.06611,10.78623 12.03989,16.44689 5.97262,5.6607 13.87539,9.79199 21.93232,11.46624 8.05815,1.67424 16.27051,0.89146 20.37727,0.50006 4.10676,-0.39139 4.10676,-0.39139 8.21234,-0.78279 4.10678,-0.39141 12.31912,-1.17421 19.91576,-4.34044 7.59548,-3.16624 14.57521,-8.71709 19.3713,-15.40474 4.79608,-6.68766 7.40854,-14.51328 8.71475,-18.42495 1.30623,-3.91281 1.30623,-3.91281 2.61245,-7.82561 1.30621,-3.91283 3.91863,-11.73845 4.10324,-19.96602 0.18345,-8.22752 -2.06215,-16.85698 -6.23199,-23.9524 -4.17103,-7.09422 -10.26514,-12.65443 -13.31339,-15.43394 -3.04705,-2.78069 -3.04705,-2.78069 -3.69783,-3.37304 -0.64961,-0.59353 -1.94883,-1.77823 -2.96879,-3.21062 -1.02114,-1.43124 -1.76188,-3.11016 -2.13225,-4.82882 -0.36919,-1.71865 -0.36919,-3.47702 -0.36919,-4.35679 0,-0.87976 0,-0.87976 0,-0.87976 0,0 0,0 0,-61.22639 0,-61.22524 0,-183.676856 0,-183.676856"
       id="path44"
       inkscape:connector-curvature="0" />
    <path
       style="fill:none;stroke:#333333;stroke-width:0.99356079;stroke-linecap:round;stroke-linejoin:round"
       d="m 835.15053,-75.320517 c 0,0 -18.77195,0 -28.15849,-1.16e-4 -9.38539,0 -9.38539,0 -9.38539,0 0,0 0,0 0,0 0,0 0,0 0,-1.251423 0,-1.251425 0,-3.754387 0,-5.005811 0,-1.251422 0,-1.251422 0,-1.251422 0,0 0,0 0,0 0,0 0,0 6.25654,0 6.25769,0 18.77192,0 25.02964,0 6.2577,0 6.2577,0 6.2577,0 0,0 0,0 0,0 0,0 0,0 0,1.877194 0,1.877192 0,5.631578 0,5.631578"
       id="path46"
       inkscape:connector-curvature="0" />
    <path
       style="fill:none;stroke:#333333;stroke-width:0.99356079;stroke-linecap:round;stroke-linejoin:round"
       d="m 728.77545,-82.829289 c 0,0 0,3.754386 0,5.631579 0,1.877077 0,1.877077 0,1.877077 0,0 0,0 0,0 0,0 0,0 -6.25654,0 -6.25768,0 -18.77195,0 -25.02962,0 -6.25771,0 -6.25771,0 -6.25771,0 0,0 0,0 0,0 0,0 0,0 0,-1.251423 0,-1.251425 0,-3.754387 0,-5.005811 0,-1.251422 0,-1.251422 0,-1.251422 0,0 0,0 0,0 0,0 0,0 9.38654,0 9.3854,0 28.15733,0 28.15733,0"
       id="path48"
       inkscape:connector-curvature="0" />
    <path
       style="fill:none;stroke:#333333;stroke-width:0.99356079;stroke-linecap:round;stroke-linejoin:round"
       d="m 691.23158,297.61556 c 0,0 18.77194,0 28.15849,0 9.38538,0 9.38538,0 9.38538,0 0,0 0,0 0,0 0,0 0,0 0,1.25131 0,1.25131 0,3.75392 0,5.00522 0,1.25132 0,1.25132 0,1.25132 0,0 0,0 0,0 0,0 0,0 -6.25654,0 -6.25768,0 -18.77195,0 -25.02962,0 -6.25771,0 -6.25771,0 -6.25771,0 0,0 0,0 0,0 0,0 0,0 0,-1.87639 0,-1.87753 0,-5.63146 0,-5.63146"
       id="path50"
       inkscape:connector-curvature="0" />
    <path
       style="fill:none;stroke:#333333;stroke-width:0.99356079;stroke-linecap:round;stroke-linejoin:round"
       d="m 728.77545,51.702868 c 0,0 0,59.444652 0,89.166402 0,29.7229 0,29.7229 0,29.7229 0,0 0,0 0,1.43941 0,1.4406 0,4.31942 -1.16719,6.92718 -1.16717,2.6066 -3.50156,4.94213 -6.10932,6.10932 -2.6066,1.16719 -5.48659,1.16719 -6.92718,1.16719 -1.43938,0 -1.43938,0 -2.8788,0 -1.44059,0 -4.32059,0 -6.92718,-1.16719 -2.60777,-1.16719 -4.94212,-3.50272 -6.1093,-6.10932 -1.16719,-2.60776 -1.16719,-5.48658 -1.16719,-6.92718 0,-1.43941 0,-1.43941 0,-1.43941 0,0 0,0 0,-19.81526 0,-19.81529 0,-59.444662 0,-79.258768 0,-19.815274 0,-19.815274 0,-19.815274 0,0 0,0 0,-0.931178 0,-0.931178 0,-2.794701 0.49654,-4.586954 0.49772,-1.792255 1.49082,-3.513241 2.79472,-4.84049 1.30387,-1.326081 2.91736,-2.257258 3.72351,-2.723432 0.80618,-0.465005 0.80618,-0.465005 1.61352,-0.931178 0.80615,-0.466172 2.41964,-1.397348 4.22007,-1.862355 1.80044,-0.466172 3.78898,-0.466172 5.58941,0 1.80044,0.465007 3.41393,1.396183 4.2201,1.862355 0.80733,0.466173 0.80733,0.466173 1.61349,0.931178 0.80733,0.466174 2.41968,1.397351 3.97241,3.154554 1.55158,1.757205 3.04239,4.339265 3.04239,9.9275"
       id="path52"
       inkscape:connector-curvature="0" />
    <path
       style="fill:none;stroke:#333333;stroke-width:0.99356079;stroke-linecap:round;stroke-linejoin:round"
       d="m 797.60665,297.61556 c 0,0 18.77193,0 28.15731,0 9.38657,0 9.38657,0 9.38657,0 0,0 0,0 0,0 0,0 0,0 0,1.25131 0,1.25131 0,3.75392 0,5.00522 0,1.25132 0,1.25132 0,1.25132 0,0 0,0 0,0 0,0 0,0 -6.2577,0 -6.25772,0 -18.77195,0 -25.02964,0 -6.25654,0 -6.25654,0 -6.25654,0 0,0 0,0 0,0 0,0 0,0 0,-1.87639 0,-1.87753 0,-5.63146 0,-5.63146"
       id="path54"
       inkscape:connector-curvature="0" />
    <path
       style="fill:none;stroke:#333333;stroke-width:0.99356079;stroke-linecap:round;stroke-linejoin:round"
       d="m 827.64151,173.72104 c 0,0 3.75394,0 5.63147,0 1.87755,0 1.87755,0 1.87755,0 0,0 0,0 0,0 0,0 0,0 0,10.42871 0,10.42872 0,31.28619 0,41.71489 0,10.42871 0,10.42871 0,10.42871 0,0 0,0 0,0 0,0 0,0 -1.25248,0 -1.25131,0 -3.75392,0 -5.00522,0 -1.25132,0 -1.25132,0 -1.25132,0 0,0 0,0 0,0 0,0 0,0 0,-15.64307 0,-15.64309 0,-46.92924 0,-46.92924"
       id="path56"
       inkscape:connector-curvature="0" />
    <path
       style="fill:none;stroke:#333333;stroke-width:0.99356079;stroke-linecap:round;stroke-linejoin:round"
       d="m 827.64151,539.50678 c 0,0 0,-31.28618 0,-46.92924 0,-15.64427 0,-15.64427 0,-15.64427 0,0 0,0 0,0 0,0 0,0 1.25132,0 1.2513,0 3.75391,0 5.00522,0 1.25248,0 1.25248,0 1.25248,0 0,0 0,0 0,0 0,0 0,0 0,10.42872 0,10.4299 0,31.28735 0,41.71607 0,10.42872 0,10.42872 0,10.42872 0,0 0,0 0,0 0,0 0,0 -1.87755,0 -1.87753,0 -5.63147,0 -5.63147,0"
       id="path58"
       inkscape:connector-curvature="0" />
    <path
       style="fill:none;stroke:#333333;stroke-width:0.99356079;stroke-linecap:round;stroke-linejoin:round"
       d="m 853.92246,724.53191 c 0,0 0,-122.45164 0,-183.67801 0,-61.22522 0,-61.22522 0,-61.22522 0,0 0,0 0,-0.87978 0,-0.87977 0,-2.6393 0.36919,-4.35796 0.37037,-1.71866 1.11111,-3.3964 2.13225,-4.82881 1.01996,-1.43122 2.31918,-2.61711 2.96879,-3.20946 0.65078,-0.59351 0.65078,-0.59351 3.69783,-3.37305 3.04706,-2.77949 9.14236,-8.3397 13.31339,-15.43394 4.16984,-7.0954 6.41544,-15.72487 6.23199,-23.95241 -0.18344,-8.22754 -2.79703,-16.05318 -4.10324,-19.96598 -1.30622,-3.91283 -1.30622,-3.91283 -2.61245,-7.82564 -1.30621,-3.91281 -3.91867,-11.73729 -8.71475,-18.42494 -4.79609,-6.68766 -11.77582,-12.23851 -19.3713,-15.40474 -7.59664,-3.16623 -15.80898,-3.94903 -19.91576,-4.3416 -4.10558,-0.3914 -4.10558,-0.3914 -8.21234,-0.7828 -4.10558,-0.3914 -12.31912,-1.17419 -20.37608,0.50004 -8.05812,1.67428 -15.96089,5.80557 -21.93351,11.46625 -5.97378,5.66182 -10.01746,12.85188 -12.03989,16.44807 -2.0224,3.59502 -2.0224,3.59502 -2.13341,3.79249 -0.10981,0.19628 -0.33181,0.59117 -0.65077,0.91014 -0.32013,0.31894 -0.73722,0.56197 -1.17186,0.68465 -0.43346,0.12152 -0.88561,0.12152 -1.11227,0.12152 -0.22548,0 -0.22548,0 -0.45216,0 -0.22547,0 -0.67763,0 -1.11225,-0.12152 -0.43462,-0.12268 -0.85175,-0.36571 -1.17188,-0.68465 -0.31893,-0.31897 -0.54094,-0.71386 -0.65075,-0.91014 -0.111,-0.19747 -0.111,-0.19747 -2.13343,-3.79249 -2.02243,-3.59619 -6.06609,-10.78625 -12.03988,-16.44807 -5.97262,-5.66068 -13.87537,-9.79197 -21.93233,-11.46625 -8.05814,-1.67423 -16.27048,-0.89144 -20.37727,-0.50004 -4.10672,0.3914 -4.10672,0.3914 -8.21233,0.7828 -4.10678,0.3914 -12.31913,1.17537 -19.91574,4.3416 -7.59549,3.16623 -14.57522,8.71591 -19.3713,15.40474 -4.79612,6.68765 -7.40855,14.51213 -8.71476,18.42494 -1.30622,3.91281 -1.30622,3.91281 -2.61245,7.82564 -1.30623,3.9128 -3.91866,11.73844 -4.10326,19.96598 -0.18343,8.22754 2.06216,16.85701 6.232,23.95241 4.17102,7.09424 10.26632,12.65445 13.31341,15.43394 3.04705,2.77954 3.04705,2.77954 3.69783,3.37305 0.64961,0.59235 1.94881,1.77824 2.96993,3.20946 1.01997,1.43241 1.76073,3.11015 2.13109,4.82881 0.37039,1.71866 0.37039,3.47819 0.37039,4.35796 0,0.87978 0,0.87978 0,0.87978 0,0 0,0 0,40.81641 0,40.8176 0,122.45162 0,163.26922 0,40.8176 0,40.8176 0,40.8176 0,0 0,0 0,0.87976 0,0.87977 0,2.63816 -0.37039,4.3568 -0.37036,1.71864 -1.11112,3.3964 -2.13109,4.82879 -1.02112,1.43124 -2.32032,2.61712 -2.96993,3.21065 -0.65078,0.59236 -0.65078,0.59236 -3.69783,3.37185 -3.04709,2.78069 -9.14239,8.33972 -13.31341,15.43514 -4.16984,7.09424 -6.41543,15.72487 -6.232,23.95241 0.1846,8.22754 2.79703,16.05318 4.10326,19.96483 1.30623,3.9128 1.30623,3.9128 2.61245,7.82562 1.30621,3.91282 3.91864,11.73845 8.71476,18.4261 4.79608,6.68765 11.77581,12.23733 19.3713,15.40474 7.59661,3.16624 15.80896,3.94902 19.91574,4.34041 4.10561,0.3914 4.10561,0.3914 8.21233,0.78282 4.10679,0.3914 12.31913,1.17421 20.37727,-0.50006 8.05696,-1.67423 15.95971,-5.80555 21.93233,-11.4662 5.97379,-5.6607 10.01745,-12.8519 12.03988,-16.44692 2.02243,-3.59622 2.02243,-3.59622 2.13343,-3.79248 0.10981,-0.19746 0.33182,-0.59119 0.65075,-0.91014 0.32013,-0.31898 0.73726,-0.56315 1.17188,-0.68465 0.43462,-0.12268 0.88678,-0.12268 1.11225,-0.12268 0.22668,0 0.22668,0 0.45216,0 0.22666,0 0.67881,0 1.11227,0.12268 0.43464,0.1215 0.85173,0.36567 1.17186,0.68465 0.31896,0.31895 0.54096,0.71268 0.65077,0.91014 0.11101,0.19626 0.11101,0.19626 2.13341,3.79248 2.02243,3.59502 6.06611,10.78622 12.03989,16.44692 5.97262,5.66065 13.87539,9.79197 21.93232,11.4662 8.05815,1.67427 16.27051,0.89146 20.37727,0.50006 4.10676,-0.39142 4.10676,-0.39142 8.21234,-0.78282 4.10678,-0.39139 12.31912,-1.17417 19.91576,-4.34041 7.59548,-3.16741 14.57521,-8.71709 19.3713,-15.40474 4.79608,-6.68765 7.40854,-14.51328 8.71475,-18.4261 1.30623,-3.91165 1.30623,-3.91165 2.61245,-7.82447 1.30621,-3.9128 3.91863,-11.73844 4.10324,-19.96598 0.18345,-8.22754 -2.06215,-16.85701 -6.23199,-23.95241 -4.17103,-7.09542 -10.26514,-12.65445 -13.31339,-15.43514 -3.04705,-2.77949 -3.04705,-2.77949 -3.69783,-3.37185 -0.64961,-0.59353 -1.94883,-1.77941 -3.15456,-3.63008 -1.20574,-1.85184 -2.31567,-4.36848 -2.31567,-9.64592"
       id="path60"
       inkscape:connector-curvature="0" />
    <path
       style="fill:none;stroke:#333333;stroke-width:0.99356079;stroke-linecap:round;stroke-linejoin:round"
       d="m 835.15053,415.61224 c 0,0 -18.77195,0 -28.15849,0 -9.38539,0 -9.38539,0 -9.38539,0 0,0 0,0 0,0 0,0 0,0 0,-1.2513 0,-1.2513 0,-3.7551 0,-5.00638 0,-1.25133 0,-1.25133 0,-1.25133 0,0 0,0 0,0 0,0 0,0 6.25654,0 6.25769,0 18.77192,0 25.02964,0 6.2577,0 6.2577,0 6.2577,0 0,0 0,0 0,0 0,0 0,0 0,1.87754 0,1.87639 0,5.63147 0,5.63147"
       id="path62"
       inkscape:connector-curvature="0" />
    <path
       style="fill:none;stroke:#333333;stroke-width:0.99356079;stroke-linecap:round;stroke-linejoin:round"
       d="m 728.77545,408.10323 c 0,0 0,3.75393 0,5.63148 0,1.87753 0,1.87753 0,1.87753 0,0 0,0 0,0 0,0 0,0 -6.25654,0 -6.25768,0 -18.77195,0 -25.02962,0 -6.25771,0 -6.25771,0 -6.25771,0 0,0 0,0 0,0 0,0 0,0 0,-1.2513 0,-1.2513 0,-3.7551 0,-5.00638 0,-1.25133 0,-1.25133 0,-1.25133 0,0 0,0 0,0 0,0 0,0 9.38654,0 9.3854,0 28.15733,0 28.15733,0"
       id="path64"
       inkscape:connector-curvature="0" />
    <path
       style="fill:none;stroke:#333333;stroke-width:0.99356079;stroke-linecap:round;stroke-linejoin:round"
       d="m 827.64151,727.22612 c 0,0 0,-31.28615 0,-46.92925 0,-15.64424 0,-15.64424 0,-15.64424 0,0 0,0 0,0 0,0 0,0 1.25132,0 1.2513,0 3.75391,0 5.00522,0 1.25248,0 1.25248,0 1.25248,0 0,0 0,0 0,0 0,0 0,0 0,10.42872 0,10.42989 0,31.28733 0,41.71606 0,10.42871 0,10.42871 0,10.42871 0,0 0,0 0,0 0,0 0,0 -1.87755,0 -1.87753,0 -5.63147,0 -5.63147,0"
       id="path66"
       inkscape:connector-curvature="0" />
    <path
       style="fill:none;stroke:#333333;stroke-width:0.99356079;stroke-linecap:round;stroke-linejoin:round"
       d="m 810.12088,788.54832 c 0,0 15.64308,0 23.46523,0 7.82096,0 7.82096,0 7.82096,0 0,0 0,0 0,0 0,0 0,0 0,1.25132 0,1.25129 0,3.7539 0,5.00522 0,1.2513 0,1.2513 0,1.2513 0,0 0,0 0,0 0,0 0,0 -5.21438,0 -5.21434,0 -15.64309,0 -20.85744,0 -5.21437,0 -5.21437,0 -5.21437,0 0,0 0,0 0,0 0,0 0,0 0,-1.87637 0,-1.87755 0,-5.63147 0,-5.63147"
       id="path68"
       inkscape:connector-curvature="0" />
    <path
       style="fill:none;stroke:#333333;stroke-width:0.99356079;stroke-linecap:round;stroke-linejoin:round"
       d="m 728.77545,542.63564 c 0,0 0,59.44463 0,89.16638 0,29.72293 0,29.72293 0,29.72293 0,0 0,0 0,1.43941 0,1.43941 0,4.3194 -1.16719,6.92715 -1.16717,2.60659 -3.50156,4.94099 -6.10932,6.10932 -2.6066,1.16719 -5.48659,1.16719 -6.92718,1.16719 -1.43938,0 -1.43938,0 -2.8788,0 -1.44059,0 -4.32059,0 -6.92718,-1.16719 -2.60777,-1.16833 -4.94212,-3.50273 -6.1093,-6.10932 -1.16719,-2.60775 -1.16719,-5.48774 -1.16719,-6.92715 0,-1.43941 0,-1.43941 0,-1.43941 0,0 0,0 0,-19.81529 0,-19.81526 0,-59.44464 0,-79.25993 0,-19.81409 0,-19.81409 0,-19.81409 0,0 0,0 0,-0.93119 0,-0.93234 0,-2.7947 0.49654,-4.58696 0.49772,-1.79226 1.49082,-3.51323 2.79472,-4.84048 1.30387,-1.32608 2.91736,-2.25726 3.72351,-2.72343 0.80618,-0.46501 0.80618,-0.46501 1.61352,-0.93118 0.80615,-0.46618 2.41964,-1.39735 4.22007,-1.86352 1.80044,-0.46501 3.78898,-0.46501 5.58941,0 1.80044,0.46617 3.41393,1.39734 4.2201,1.86352 0.80733,0.46617 0.80733,0.46617 1.61349,0.93118 0.80733,0.46617 2.41968,1.39735 3.97241,3.15456 1.55158,1.75604 3.04239,4.33809 3.04239,9.9275"
       id="path70"
       inkscape:connector-curvature="0" />
  </g>
</svg>
